<svg width="25" height="24" viewBox="0 0 25 24" fill="none" xmlns="http://www.w3.org/2000/svg">
<path d="M18.625 10.7499H16.3749C16.1624 10.7499 15.9843 10.678 15.8406 10.5342C15.6968 10.3904 15.6249 10.2122 15.6249 9.99965C15.6249 9.78705 15.6968 9.60896 15.8406 9.46537C15.9843 9.32179 16.1624 9.25 16.3749 9.25H18.625V6.99997C18.625 6.78747 18.6969 6.60935 18.8407 6.4656C18.9845 6.32186 19.1627 6.25 19.3753 6.25C19.5879 6.25 19.766 6.32186 19.9095 6.4656C20.0531 6.60935 20.1249 6.78747 20.1249 6.99997V9.25H22.375C22.5874 9.25 22.7656 9.3219 22.9093 9.4657C23.0531 9.60952 23.1249 9.78771 23.1249 10.0003C23.1249 10.2129 23.0531 10.391 22.9093 10.5346C22.7656 10.6782 22.5874 10.7499 22.375 10.7499H20.1249V13C20.1249 13.2125 20.053 13.3906 19.9092 13.5343C19.7654 13.6781 19.5872 13.7499 19.3746 13.7499C19.162 13.7499 18.9839 13.6781 18.8404 13.5343C18.6968 13.3906 18.625 13.2125 18.625 13V10.7499ZM9.49995 11.6922C8.53747 11.6922 7.71352 11.3495 7.0281 10.6641C6.34268 9.97873 5.99998 9.15478 5.99998 8.1923C5.99998 7.2298 6.34268 6.40585 7.0281 5.72045C7.71352 5.03503 8.53747 4.69232 9.49995 4.69232C10.4624 4.69232 11.2864 5.03503 11.9718 5.72045C12.6572 6.40585 12.9999 7.2298 12.9999 8.1923C12.9999 9.15478 12.6572 9.97873 11.9718 10.6641C11.2864 11.3495 10.4624 11.6922 9.49995 11.6922ZM2 17.7884V17.0846C2 16.5948 2.133 16.1413 2.399 15.724C2.66503 15.3067 3.02048 14.9859 3.46535 14.7615C4.45382 14.2769 5.45093 13.9134 6.4567 13.6711C7.46247 13.4288 8.47688 13.3077 9.49995 13.3077C10.523 13.3077 11.5374 13.4288 12.5432 13.6711C13.549 13.9134 14.5461 14.2769 15.5345 14.7615C15.9794 14.9859 16.3349 15.3067 16.6009 15.724C16.8669 16.1413 16.9999 16.5948 16.9999 17.0846V17.7884C16.9999 18.2102 16.8522 18.5688 16.5567 18.8643C16.2612 19.1599 15.9025 19.3076 15.4807 19.3076H3.51917C3.09739 19.3076 2.73875 19.1599 2.44325 18.8643C2.14775 18.5688 2 18.2102 2 17.7884Z" fill="white"/>
</svg>
