<svg width="40" height="40" viewBox="0 0 40 40" fill="none" xmlns="http://www.w3.org/2000/svg">
<mask id="mask0_44_13517" style="mask-type:alpha" maskUnits="userSpaceOnUse" x="0" y="0" width="40" height="40">
<rect width="40" height="40" fill="#D9D9D9"/>
</mask>
<g mask="url(#mask0_44_13517)">
<path d="M5.51293 34.1667C4.67104 34.1667 3.95842 33.875 3.37509 33.2917C2.79176 32.7084 2.50009 31.9958 2.50009 31.1539V12.1796C2.50009 11.3377 2.79176 10.6251 3.37509 10.0418C3.95842 9.45846 4.67104 9.16679 5.51293 9.16679H10.6026L12.7821 6.80462C13.0578 6.50582 13.3899 6.26926 13.7783 6.09496C14.1668 5.92062 14.574 5.83346 15.0001 5.83346H21.7629C22.1171 5.83346 22.4139 5.9533 22.6535 6.193C22.8931 6.43269 23.0128 6.72969 23.0128 7.084C23.0128 7.43833 22.8931 7.73515 22.6535 7.97446C22.4139 8.21376 22.1171 8.33342 21.7629 8.33342H14.7757L11.718 11.6667H5.51293C5.36334 11.6667 5.24047 11.7148 5.1443 11.811C5.04813 11.9072 5.00005 12.03 5.00005 12.1796V31.1539C5.00005 31.3035 5.04813 31.4263 5.1443 31.5225C5.24047 31.6187 5.36334 31.6668 5.51293 31.6668H31.1538C31.3034 31.6668 31.4263 31.6187 31.5225 31.5225C31.6186 31.4263 31.6667 31.3035 31.6667 31.1539V18.2373C31.6667 17.8831 31.7866 17.5862 32.0263 17.3467C32.2659 17.1071 32.5629 16.9873 32.9173 16.9873C33.2716 16.9873 33.5684 17.1071 33.8077 17.3467C34.047 17.5862 34.1667 17.8831 34.1667 18.2373V31.1539C34.1667 31.9958 33.875 32.7084 33.2917 33.2917C32.7083 33.875 31.9957 34.1667 31.1538 34.1667H5.51293ZM31.6667 8.33342H29.5833C29.2292 8.33342 28.9323 8.21357 28.6928 7.97387C28.4532 7.73421 28.3334 7.43721 28.3334 7.08287C28.3334 6.72857 28.4532 6.43176 28.6928 6.19246C28.9323 5.95312 29.2292 5.83346 29.5833 5.83346H31.6667V3.75012C31.6667 3.39596 31.7866 3.09908 32.0263 2.8595C32.2659 2.61991 32.5629 2.50012 32.9173 2.50012C33.2716 2.50012 33.5684 2.61991 33.8077 2.8595C34.047 3.09908 34.1667 3.39596 34.1667 3.75012V5.83346H36.25C36.6042 5.83346 36.9011 5.9533 37.1406 6.193C37.3802 6.43269 37.5 6.72969 37.5 7.084C37.5 7.43833 37.3802 7.73515 37.1406 7.97446C36.9011 8.21376 36.6042 8.33342 36.25 8.33342H34.1667V10.4168C34.1667 10.7709 34.0468 11.0678 33.8071 11.3074C33.5674 11.547 33.2704 11.6667 32.9161 11.6667C32.5618 11.6667 32.265 11.547 32.0257 11.3074C31.7864 11.0678 31.6667 10.7709 31.6667 10.4168V8.33342ZM18.3334 28.5257C20.2458 28.5257 21.867 27.8606 23.1971 26.5305C24.5272 25.2004 25.1923 23.5791 25.1923 21.6667C25.1923 19.7544 24.5272 18.1331 23.1971 16.803C21.867 15.4729 20.2458 14.8078 18.3334 14.8078C16.421 14.8078 14.7997 15.4729 13.4696 16.803C12.1395 18.1331 11.4745 19.7544 11.4745 21.6667C11.4745 23.5791 12.1395 25.2004 13.4696 26.5305C14.7997 27.8606 16.421 28.5257 18.3334 28.5257ZM18.3334 26.0258C17.1026 26.0258 16.0684 25.6069 15.2308 24.7693C14.3932 23.9317 13.9744 22.8975 13.9744 21.6667C13.9744 20.436 14.3932 19.4018 15.2308 18.5642C16.0684 17.7266 17.1026 17.3077 18.3334 17.3077C19.5642 17.3077 20.5984 17.7266 21.436 18.5642C22.2736 19.4018 22.6924 20.436 22.6924 21.6667C22.6924 22.8975 22.2736 23.9317 21.436 24.7693C20.5984 25.6069 19.5642 26.0258 18.3334 26.0258Z" fill="white"/>
</g>
</svg>
