<svg width="28" height="28" viewBox="0 0 28 28" fill="none" xmlns="http://www.w3.org/2000/svg">
<mask id="mask0_1281_6720" style="mask-type:alpha" maskUnits="userSpaceOnUse" x="0" y="0" width="28" height="28">
<rect width="28" height="28" fill="#D9D9D9"/>
</mask>
<g mask="url(#mask0_1281_6720)">
<path d="M12.5416 21.9875C13.2282 21.9875 13.8074 21.7515 14.2793 21.2796C14.7512 20.8077 14.9871 20.2285 14.9871 19.542V15.0323H18.3301V12.9683H13.9551V17.6125C13.7562 17.4345 13.5389 17.304 13.3033 17.221C13.0678 17.138 12.8139 17.0965 12.5416 17.0965C11.8551 17.0965 11.2759 17.3324 10.804 17.8043C10.3321 18.2762 10.0961 18.8554 10.0961 19.542C10.0961 20.2285 10.3321 20.8077 10.804 21.2796C11.2759 21.7515 11.8551 21.9875 12.5416 21.9875ZM7.35898 25.0836C6.76966 25.0836 6.27083 24.8794 5.8625 24.4711C5.45417 24.0628 5.25 23.5639 5.25 22.9746V5.02598C5.25 4.43665 5.45417 3.93783 5.8625 3.52949C6.27083 3.12116 6.76966 2.91699 7.35898 2.91699H16.625L22.7499 9.04194V22.9746C22.7499 23.5639 22.5458 24.0628 22.1374 24.4711C21.7291 24.8794 21.2303 25.0836 20.641 25.0836H7.35898ZM15.75 9.91694V4.66696H7.35898C7.26923 4.66696 7.18695 4.70436 7.11215 4.77914C7.03736 4.85394 6.99997 4.93622 6.99997 5.02598V22.9746C6.99997 23.0644 7.03736 23.1467 7.11215 23.2215C7.18695 23.2962 7.26923 23.3336 7.35898 23.3336H20.641C20.7307 23.3336 20.813 23.2962 20.8878 23.2215C20.9626 23.1467 21 23.0644 21 22.9746V9.91694H15.75Z" fill="#9887A7"/>
</g>
</svg>
