<svg width="28" height="28" viewBox="0 0 28 28" fill="none" xmlns="http://www.w3.org/2000/svg">
<mask id="mask0_149_2150" style="mask-type:alpha" maskUnits="userSpaceOnUse" x="0" y="0" width="28" height="28">
<rect width="28" height="28" fill="#D9D9D9"/>
</mask>
<g mask="url(#mask0_149_2150)">
<path d="M22.6801 23.9168C20.4814 23.9168 18.2726 23.4056 16.0537 22.3833C13.8347 21.361 11.7961 19.9187 9.93766 18.0565C8.07922 16.1943 6.63883 14.1557 5.6165 11.9405C4.59417 9.72536 4.08301 7.51843 4.08301 5.31973C4.08301 4.96652 4.19967 4.67218 4.43301 4.43671C4.66634 4.20123 4.95801 4.0835 5.30801 4.0835H9.11309C9.40775 4.0835 9.66764 4.1796 9.89275 4.37181C10.1179 4.56402 10.2611 4.80146 10.3224 5.08415L10.991 8.5168C11.0373 8.8354 11.0276 9.10912 10.9618 9.33796C10.896 9.5668 10.7778 9.759 10.6073 9.91456L7.91277 12.5373C8.34653 13.3315 8.842 14.0828 9.39916 14.791C9.95632 15.4992 10.5595 16.1757 11.2086 16.8203C11.8488 17.4605 12.5294 18.0551 13.2503 18.604C13.9712 19.1529 14.7498 19.6637 15.5859 20.1364L18.2041 17.4957C18.3866 17.3057 18.6076 17.1726 18.8671 17.0963C19.1266 17.02 19.3962 17.0013 19.6759 17.0402L22.9156 17.6998C23.2103 17.7776 23.4507 17.9279 23.637 18.1508C23.8232 18.3737 23.9163 18.6264 23.9163 18.9092V22.6918C23.9163 23.0418 23.7986 23.3334 23.5631 23.5668C23.3276 23.8001 23.0333 23.9168 22.6801 23.9168ZM7.0849 10.8816L9.16696 8.88926C9.20436 8.85934 9.22866 8.8182 9.23988 8.76586C9.2511 8.71349 9.24923 8.66488 9.23428 8.62002L8.72722 6.01296C8.71226 5.95313 8.68609 5.90826 8.6487 5.87836C8.61131 5.84843 8.5627 5.83347 8.50287 5.83347H6.00798C5.96312 5.83347 5.92573 5.84843 5.8958 5.87836C5.86588 5.90826 5.85092 5.94565 5.85092 5.99053C5.91075 6.78775 6.04125 7.59769 6.24242 8.42035C6.44361 9.243 6.72444 10.0634 7.0849 10.8816ZM17.2349 20.9642C18.0082 21.3247 18.8148 21.6003 19.6546 21.791C20.4945 21.9817 21.2793 22.095 22.0093 22.1309C22.0541 22.1309 22.0915 22.1159 22.1214 22.086C22.1514 22.0561 22.1663 22.0187 22.1663 21.9738V19.5194C22.1663 19.4595 22.1514 19.4109 22.1214 19.3735C22.0915 19.3361 22.0467 19.3099 21.9868 19.295L19.5368 18.7969C19.492 18.782 19.4527 18.7801 19.419 18.7913C19.3854 18.8025 19.3499 18.8268 19.3125 18.8642L17.2349 20.9642Z" fill="#9887A7"/>
</g>
</svg>
