<svg width="28" height="28" viewBox="0 0 28 28" fill="none" xmlns="http://www.w3.org/2000/svg">
<mask id="mask0_337_699" style="mask-type:alpha" maskUnits="userSpaceOnUse" x="0" y="0" width="28" height="28">
<rect width="28" height="28" fill="#D9D9D9"/>
</mask>
<g mask="url(#mask0_337_699)">
<path d="M22.6801 23.9168C20.4814 23.9168 18.2726 23.4056 16.0537 22.3833C13.8347 21.361 11.7942 19.9187 9.93203 18.0565C8.07734 16.1943 6.63883 14.1557 5.6165 11.9405C4.59417 9.72536 4.08301 7.51843 4.08301 5.31973C4.08301 4.96973 4.19967 4.67619 4.43301 4.43913C4.66634 4.20204 4.95801 4.0835 5.30801 4.0835H9.11309C9.40775 4.0835 9.66764 4.1796 9.89275 4.37181C10.1179 4.56402 10.2611 4.80146 10.3224 5.08415L10.991 8.5168C11.0373 8.8354 11.0276 9.10912 10.9618 9.33796C10.896 9.5668 10.7778 9.759 10.6073 9.91456L7.91277 12.5373C8.34653 13.3315 8.842 14.0828 9.39916 14.791C9.95632 15.4992 10.5595 16.1757 11.2086 16.8203C11.8488 17.4605 12.5294 18.0551 13.2503 18.604C13.9712 19.1529 14.7498 19.6637 15.5859 20.1364L18.2041 17.4957C18.3866 17.3057 18.6076 17.1726 18.8671 17.0963C19.1266 17.02 19.3962 17.0013 19.6759 17.0402L22.9156 17.6998C23.2103 17.7776 23.4507 17.9279 23.637 18.1508C23.8232 18.3737 23.9163 18.6264 23.9163 18.9092V22.6918C23.9163 23.0418 23.7977 23.3334 23.5607 23.5668C23.3236 23.8001 23.0301 23.9168 22.6801 23.9168Z" fill="white"/>
</g>
</svg>
