<svg width="28" height="28" viewBox="0 0 28 28" fill="none" xmlns="http://www.w3.org/2000/svg">
<mask id="mask0_149_2145" style="mask-type:alpha" maskUnits="userSpaceOnUse" x="0" y="0" width="28" height="28">
<rect width="28" height="28" fill="#D9D9D9"/>
</mask>
<g mask="url(#mask0_149_2145)">
<path d="M7.04494 20.4166L4.70939 22.7521C4.37734 23.0842 3.99556 23.1587 3.56404 22.9758C3.13251 22.7929 2.91675 22.4663 2.91675 21.996V5.02561C2.91675 4.43629 3.12091 3.93746 3.52925 3.52913C3.93758 3.12079 4.43641 2.91663 5.02573 2.91663H22.9744C23.5637 2.91663 24.0625 3.12079 24.4709 3.52913C24.8792 3.93746 25.0834 4.43629 25.0834 5.02561V18.3076C25.0834 18.8969 24.8792 19.3957 24.4709 19.8041C24.0625 20.2124 23.5637 20.4166 22.9744 20.4166H7.04494ZM8.16672 16.0416H15.1667C15.4146 16.0416 15.6224 15.9577 15.7902 15.7899C15.9578 15.6221 16.0417 15.4142 16.0417 15.1662C16.0417 14.9182 15.9578 14.7104 15.7902 14.5429C15.6224 14.3754 15.4146 14.2916 15.1667 14.2916H8.16672C7.9188 14.2916 7.711 14.3755 7.54331 14.5433C7.3756 14.7111 7.29175 14.919 7.29175 15.167C7.29175 15.415 7.3756 15.6228 7.54331 15.7903C7.711 15.9578 7.9188 16.0416 8.16672 16.0416ZM8.16672 12.5416H19.8334C20.0813 12.5416 20.2891 12.4577 20.4568 12.2899C20.6245 12.1221 20.7084 11.9142 20.7084 11.6662C20.7084 11.4182 20.6245 11.2104 20.4568 11.0429C20.2891 10.8754 20.0813 10.7916 19.8334 10.7916H8.16672C7.9188 10.7916 7.711 10.8755 7.54331 11.0433C7.3756 11.2111 7.29175 11.419 7.29175 11.667C7.29175 11.915 7.3756 12.1228 7.54331 12.2903C7.711 12.4578 7.9188 12.5416 8.16672 12.5416ZM8.16672 9.04157H19.8334C20.0813 9.04157 20.2891 8.95768 20.4568 8.78992C20.6245 8.62213 20.7084 8.41423 20.7084 8.16622C20.7084 7.91818 20.6245 7.71041 20.4568 7.5429C20.2891 7.37538 20.0813 7.29163 19.8334 7.29163H8.16672C7.9188 7.29163 7.711 7.37551 7.54331 7.54328C7.3756 7.71106 7.29175 7.91896 7.29175 8.16698C7.29175 8.41501 7.3756 8.62278 7.54331 8.7903C7.711 8.95781 7.9188 9.04157 8.16672 9.04157Z" fill="white"/>
</g>
</svg>
