<svg width="28" height="28" viewBox="0 0 28 28" fill="none" xmlns="http://www.w3.org/2000/svg">
<mask id="mask0_337_708" style="mask-type:alpha" maskUnits="userSpaceOnUse" x="0" y="0" width="28" height="28">
<rect width="28" height="28" fill="#D9D9D9"/>
</mask>
<g mask="url(#mask0_337_708)">
<path d="M7.04518 20.4164L4.70963 22.752C4.37758 23.084 3.9958 23.1592 3.56429 22.9775C3.13276 22.7957 2.91699 22.4685 2.91699 21.9959V5.02549C2.91699 4.43617 3.12116 3.93734 3.52949 3.529C3.93783 3.12067 4.43665 2.9165 5.02598 2.9165H22.9746C23.5639 2.9165 24.0628 3.12067 24.4711 3.529C24.8794 3.93734 25.0836 4.43617 25.0836 5.02549V18.3075C25.0836 18.8968 24.8794 19.3956 24.4711 19.8039C24.0628 20.2123 23.5639 20.4164 22.9746 20.4164H7.04518ZM6.30033 18.6665H22.9746C23.0644 18.6665 23.1467 18.6291 23.2215 18.5543C23.2962 18.4795 23.3336 18.3972 23.3336 18.3075V5.02549C23.3336 4.93573 23.2962 4.85345 23.2215 4.77865C23.1467 4.70387 23.0644 4.66648 22.9746 4.66648H5.02598C4.93622 4.66648 4.85394 4.70387 4.77914 4.77865C4.70435 4.85345 4.66696 4.93573 4.66696 5.02549V20.2819L6.30033 18.6665ZM8.16696 16.0414H15.167C15.4152 16.0414 15.6231 15.9577 15.7907 15.7902C15.9582 15.6227 16.0419 15.4148 16.0419 15.1665C16.0419 14.9182 15.9582 14.7103 15.7907 14.5428C15.6231 14.3753 15.4152 14.2915 15.167 14.2915H8.16696C7.91868 14.2915 7.71078 14.3753 7.54326 14.5428C7.37575 14.7103 7.29199 14.9182 7.29199 15.1665C7.29199 15.4148 7.37575 15.6227 7.54326 15.7902C7.71078 15.9577 7.91868 16.0414 8.16696 16.0414ZM8.16696 12.5414H19.8336C20.0819 12.5414 20.2898 12.4577 20.4573 12.2902C20.6248 12.1227 20.7086 11.9148 20.7086 11.6665C20.7086 11.4182 20.6248 11.2103 20.4573 11.0428C20.2898 10.8753 20.0819 10.7915 19.8336 10.7915H8.16696C7.91868 10.7915 7.71078 10.8753 7.54326 11.0428C7.37575 11.2103 7.29199 11.4182 7.29199 11.6665C7.29199 11.9148 7.37575 12.1227 7.54326 12.2902C7.71078 12.4577 7.91868 12.5414 8.16696 12.5414ZM8.16696 9.04145H19.8336C20.0819 9.04145 20.2898 8.95769 20.4573 8.79017C20.6248 8.62266 20.7086 8.41476 20.7086 8.16648C20.7086 7.91819 20.6248 7.71029 20.4573 7.54278C20.2898 7.37526 20.0819 7.2915 19.8336 7.2915H8.16696C7.91868 7.2915 7.71078 7.37526 7.54326 7.54278C7.37575 7.71029 7.29199 7.91819 7.29199 8.16648C7.29199 8.41476 7.37575 8.62266 7.54326 8.79017C7.71078 8.95769 7.91868 9.04145 8.16696 9.04145Z" fill="#9887A7"/>
</g>
</svg>
