<svg width="28" height="28" viewBox="0 0 28 28" fill="none" xmlns="http://www.w3.org/2000/svg">
<path d="M13.9987 15.75C14.8896 15.75 15.6472 15.4382 16.2717 14.8146C16.8961 14.1911 17.2084 13.4339 17.2084 12.543C17.2084 11.6522 16.8966 10.8945 16.273 10.2701C15.6494 9.64562 14.8922 9.33339 14.0014 9.33339C13.1105 9.33339 12.3529 9.64518 11.7284 10.2688C11.104 10.8923 10.7917 11.6496 10.7917 12.5404C10.7917 13.4312 11.1035 14.1888 11.7271 14.8133C12.3507 15.4378 13.1079 15.75 13.9987 15.75ZM5.02573 22.7499C4.43641 22.7499 3.93758 22.5458 3.52925 22.1374C3.12091 21.7291 2.91675 21.2303 2.91675 20.641V7.35898C2.91675 6.76966 3.12091 6.27083 3.52925 5.8625C3.93758 5.45416 4.43641 5.25 5.02573 5.25H22.9744C23.5637 5.25 24.0625 5.45416 24.4709 5.8625C24.8792 6.27083 25.0834 6.76966 25.0834 7.35898V20.641C25.0834 21.2303 24.8792 21.7291 24.4709 22.1374C24.0625 22.5458 23.5637 22.7499 22.9744 22.7499H5.02573ZM7.47127 21H20.5288C19.6538 20.0607 18.6652 19.3397 17.5628 18.8372C16.4605 18.3346 15.2729 18.0833 14.0001 18.0833C12.7272 18.0833 11.5396 18.3346 10.4373 18.8372C9.33494 19.3397 8.34627 20.0607 7.47127 21ZM5.83339 25.8909C5.58547 25.8909 5.37767 25.807 5.20998 25.6392C5.04227 25.4715 4.95841 25.2636 4.95841 25.0155C4.95841 24.7675 5.04227 24.5598 5.20998 24.3923C5.37767 24.2247 5.58547 24.141 5.83339 24.141H22.1667C22.4146 24.141 22.6224 24.2248 22.7902 24.3926C22.9578 24.5604 23.0417 24.7683 23.0417 25.0163C23.0417 25.2644 22.9578 25.4721 22.7902 25.6396C22.6224 25.8072 22.4146 25.8909 22.1667 25.8909H5.83339ZM5.83339 3.85898C5.58547 3.85898 5.37767 3.77509 5.20998 3.6073C5.04227 3.43951 4.95841 3.23161 4.95841 2.9836C4.95841 2.73557 5.04227 2.52779 5.20998 2.36028C5.37767 2.19277 5.58547 2.10901 5.83339 2.10901H22.1667C22.4146 2.10901 22.6224 2.1929 22.7902 2.36069C22.9578 2.52846 23.0417 2.73635 23.0417 2.98439C23.0417 3.2324 22.9578 3.44017 22.7902 3.60768C22.6224 3.77521 22.4146 3.85898 22.1667 3.85898H5.83339Z" fill="white"/>
</svg>
