<svg width="28" height="28" viewBox="0 0 28 28" fill="none" xmlns="http://www.w3.org/2000/svg">
<path d="M5.83314 25.8909C5.58486 25.8909 5.37696 25.8072 5.20944 25.6397C5.04193 25.4721 4.95817 25.2642 4.95817 25.016C4.95817 24.7677 5.04193 24.5598 5.20944 24.3923C5.37696 24.2247 5.58486 24.141 5.83314 24.141H22.1665C22.4148 24.141 22.6227 24.2247 22.7902 24.3923C22.9577 24.5598 23.0414 24.7677 23.0414 25.016C23.0414 25.2642 22.9577 25.4721 22.7902 25.6397C22.6227 25.8072 22.4148 25.8909 22.1665 25.8909H5.83314ZM5.83314 3.85898C5.58486 3.85898 5.37696 3.77521 5.20944 3.60768C5.04193 3.44017 4.95817 3.23227 4.95817 2.98398C4.95817 2.73569 5.04193 2.52779 5.20944 2.36028C5.37696 2.19277 5.58486 2.10901 5.83314 2.10901H22.1665C22.4148 2.10901 22.6227 2.19277 22.7902 2.36028C22.9577 2.52779 23.0414 2.73569 23.0414 2.98398C23.0414 3.23227 22.9577 3.44017 22.7902 3.60768C22.6227 3.77521 22.4148 3.85898 22.1665 3.85898H5.83314ZM13.9998 15.75C14.8898 15.75 15.647 15.4378 16.2714 14.8133C16.8959 14.1888 17.2081 13.4316 17.2081 12.5417C17.2081 11.6517 16.8959 10.8945 16.2714 10.2701C15.647 9.64562 14.8898 9.33339 13.9998 9.33339C13.1099 9.33339 12.3526 9.64562 11.7282 10.2701C11.1037 10.8945 10.7915 11.6517 10.7915 12.5417C10.7915 13.4316 11.1037 14.1888 11.7282 14.8133C12.3526 15.4378 13.1099 15.75 13.9998 15.75ZM5.02549 22.7499C4.43617 22.7499 3.93734 22.5458 3.529 22.1374C3.12067 21.7291 2.9165 21.2303 2.9165 20.641V7.35898C2.9165 6.76966 3.12067 6.27083 3.529 5.8625C3.93734 5.45416 4.43617 5.25 5.02549 5.25H22.9741C23.5634 5.25 24.0623 5.45416 24.4706 5.8625C24.8789 6.27083 25.0831 6.76966 25.0831 7.35898V20.641C25.0831 21.2303 24.8789 21.7291 24.4706 22.1374C24.0623 22.5458 23.5634 22.7499 22.9741 22.7499H5.02549ZM7.47102 21C8.34602 20.0607 9.3347 19.3397 10.437 18.8372C11.5394 18.3346 12.727 18.0833 13.9998 18.0833C15.2727 18.0833 16.4602 18.3346 17.5626 18.8372C18.6649 19.3397 19.6536 20.0607 20.5286 21H22.9741C23.0639 21 23.1462 20.9626 23.221 20.8878C23.2957 20.813 23.3331 20.7307 23.3331 20.641V7.35898C23.3331 7.26922 23.2957 7.18694 23.221 7.11214C23.1462 7.03736 23.0639 6.99997 22.9741 6.99997H5.02549C4.93573 6.99997 4.85345 7.03736 4.77865 7.11214C4.70387 7.18694 4.66647 7.26922 4.66647 7.35898V20.641C4.66647 20.7307 4.70387 20.813 4.77865 20.8878C4.85345 20.9626 4.93573 21 5.02549 21H7.47102ZM10.1498 21H17.8498C17.2859 20.6111 16.6783 20.3194 16.0269 20.125C15.3755 19.9305 14.6998 19.8333 13.9998 19.8333C13.2998 19.8333 12.6241 19.9305 11.9727 20.125C11.3213 20.3194 10.7137 20.6111 10.1498 21ZM13.9998 14.0001C13.5945 14.0001 13.2501 13.8583 12.9666 13.5749C12.6832 13.2914 12.5414 12.9471 12.5414 12.5417C12.5414 12.1364 12.6832 11.792 12.9666 11.5085C13.2501 11.2251 13.5945 11.0833 13.9998 11.0833C14.4051 11.0833 14.7495 11.2251 15.033 11.5085C15.3164 11.792 15.4582 12.1364 15.4582 12.5417C15.4582 12.9471 15.3164 13.2914 15.033 13.5749C14.7495 13.8583 14.4051 14.0001 13.9998 14.0001Z" fill="#9887A7"/>
</svg>
