<svg width="24" height="25" viewBox="0 0 24 25" fill="none" xmlns="http://www.w3.org/2000/svg">
<mask id="mask0_1284_10825" style="mask-type:alpha" maskUnits="userSpaceOnUse" x="0" y="0" width="24" height="25">
<rect y="0.5" width="24" height="24" fill="#D9D9D9"/>
</mask>
<g mask="url(#mask0_1284_10825)">
<path d="M12.9288 2.63873L20.7807 7.32333C21.0038 7.4682 21.1794 7.6589 21.3076 7.89543C21.4358 8.13196 21.5 8.38356 21.5 8.65023V19.1925C21.5 19.6976 21.325 20.1252 20.975 20.4752C20.625 20.8252 20.1974 21.0002 19.6923 21.0002H4.3077C3.80257 21.0002 3.375 20.8252 3.025 20.4752C2.675 20.1252 2.5 19.6976 2.5 19.1925V8.65023C2.5 8.38356 2.56411 8.13196 2.69233 7.89543C2.82053 7.6589 2.99616 7.4682 3.21923 7.32333L11.0711 2.63873C11.3557 2.47463 11.6654 2.39258 12 2.39258C12.3346 2.39258 12.6442 2.47463 12.9288 2.63873ZM12.1538 13.0541L19.8 8.50023L12.1538 3.94638C12.1025 3.91433 12.0513 3.8983 12 3.8983C11.9487 3.8983 11.8974 3.91433 11.8461 3.94638L4.19998 8.50023L11.8461 13.0541C11.8974 13.0861 11.9487 13.1022 12 13.1022C12.0513 13.1022 12.1025 13.0861 12.1538 13.0541Z" fill="white"/>
</g>
</svg>
