<svg width="28" height="28" viewBox="0 0 28 28" fill="none" xmlns="http://www.w3.org/2000/svg">
<mask id="mask0_1662_104" style="mask-type:alpha" maskUnits="userSpaceOnUse" x="0" y="0" width="28" height="28">
<rect width="28" height="28" fill="#D9D9D9"/>
</mask>
<g mask="url(#mask0_1662_104)">
<path d="M16.1858 24.0356C16.2234 24.0506 16.257 24.0581 16.2867 24.0581C16.3167 24.0581 16.3504 24.0506 16.388 24.0356L23.2509 21.9108C23.1912 21.6462 23.067 21.4432 22.8784 21.3018C22.69 21.1605 22.4791 21.0898 22.2458 21.0898H16.5338C16.0238 21.0898 15.5907 21.0703 15.2347 21.0314C14.8787 20.9926 14.5129 20.9073 14.1375 20.7756L12.3067 20.1766C12.0704 20.1017 11.901 19.9522 11.7986 19.728C11.6961 19.5036 11.6823 19.2732 11.7572 19.0367C11.8318 18.8079 11.9765 18.6393 12.1912 18.531C12.4058 18.4225 12.6313 18.4057 12.8675 18.4805L14.3842 19.0122C14.7373 19.1244 15.1322 19.2041 15.569 19.2511C16.0057 19.2982 16.5726 19.3277 17.2697 19.3398H17.5791C17.5791 19.051 17.5141 18.8019 17.384 18.5925C17.2539 18.3831 17.0826 18.2417 16.8701 18.1684L10.1014 15.6826C10.0788 15.6752 10.0582 15.6696 10.0395 15.6659C10.0209 15.6621 10.0004 15.6601 9.97799 15.6601H7.81966V21.6731L16.1858 24.0356ZM15.7305 25.7497L7.81966 23.4814C7.68647 23.9644 7.4157 24.3522 7.00737 24.6446C6.59904 24.9371 6.16679 25.0833 5.71062 25.0833H4.09537C3.5134 25.0833 3.0164 24.8773 2.60437 24.4652C2.19234 24.053 1.98633 23.556 1.98633 22.9742V16.0192C1.98633 15.4374 2.19234 14.9405 2.60437 14.5284C3.0164 14.1164 3.5134 13.9104 4.09537 13.9104H9.96662C10.0878 13.9104 10.2108 13.923 10.3359 13.9483C10.4607 13.9738 10.5777 14.006 10.6867 14.0449L17.4849 16.5488C18.0144 16.7446 18.4541 17.0912 18.8041 17.5886C19.1541 18.086 19.3291 18.6697 19.3291 19.3398H22.2458C23.0835 19.3398 23.7659 19.6102 24.293 20.1509C24.8203 20.6915 25.084 21.3933 25.084 22.2564C25.084 22.587 24.9965 22.8532 24.8215 23.055C24.6465 23.2571 24.3818 23.4171 24.0273 23.5351L16.9488 25.7316C16.7573 25.7945 16.556 25.8277 16.3451 25.8314C16.1343 25.8353 15.9295 25.8081 15.7305 25.7497ZM3.73633 22.9742C3.73633 23.079 3.76997 23.1651 3.83724 23.2324C3.90452 23.2996 3.99056 23.3333 4.09537 23.3333H5.71062C5.81523 23.3333 5.90127 23.3053 5.96874 23.2493C6.03602 23.1931 6.06966 23.1014 6.06966 22.9742V15.6601H4.09537C3.99056 15.6601 3.90452 15.6938 3.83724 15.7613C3.76997 15.8286 3.73633 15.9145 3.73633 16.0192V22.9742Z" fill="#9887A7"/>
<mask id="mask1_1662_104" style="mask-type:alpha" maskUnits="userSpaceOnUse" x="2" y="2" width="25" height="25">
<rect x="2.33398" y="2.3335" width="24.5" height="24.5" fill="#D9D9D9"/>
</mask>
<g mask="url(#mask1_1662_104)">
<path d="M15.9315 19.5248C15.7662 17.1141 14.8639 15.0492 13.2245 13.3303C11.5852 11.6113 9.5753 10.6414 7.19493 10.4204C6.94922 10.3984 6.73877 10.3068 6.56357 10.1458C6.38838 9.98465 6.30078 9.79 6.30078 9.56187C6.30078 9.33356 6.38627 9.14214 6.55724 8.9876C6.72821 8.83288 6.93444 8.77006 7.17593 8.79914C9.35282 8.97575 11.3005 9.71165 13.019 11.0068C14.7374 12.3018 15.9872 13.958 16.7684 15.9752C17.4027 14.397 18.3156 13.009 19.507 11.8113C20.6987 10.6136 22.0509 9.59498 23.5638 8.75552H19.9574C19.7233 8.75552 19.527 8.67807 19.3685 8.52318C19.2102 8.36828 19.131 8.17641 19.131 7.94756C19.131 7.71853 19.2102 7.52675 19.3685 7.37221C19.527 7.2175 19.7233 7.14014 19.9574 7.14014H25.138C25.4203 7.14014 25.6568 7.23347 25.8476 7.42014C26.0386 7.60662 26.1341 7.8378 26.1341 8.11367V13.1771C26.1341 13.4059 26.0549 13.5978 25.8964 13.7527C25.7379 13.9074 25.5416 13.9848 25.3074 13.9848C25.0731 13.9848 24.8769 13.9074 24.7188 13.7527C24.5605 13.5978 24.4813 13.4059 24.4813 13.1771V10.0995C22.6322 11.1226 21.0571 12.4381 19.756 14.0459C18.4549 15.6538 17.7309 17.48 17.584 19.5248H18.8872C19.1214 19.5248 19.3177 19.6022 19.4762 19.7571C19.6345 19.912 19.7136 20.1039 19.7136 20.3327C19.7136 20.5617 19.6345 20.7535 19.4762 20.9081C19.3177 21.0628 19.1214 21.1401 18.8872 21.1401H14.6176C14.3834 21.1401 14.1872 21.0627 14.0289 20.9078C13.8704 20.7529 13.7912 20.561 13.7912 20.3322C13.7912 20.1031 13.8704 19.9114 14.0289 19.7568C14.1872 19.6021 14.3834 19.5248 14.6176 19.5248H15.9315Z" fill="#9887A7"/>
</g>
</g>
</svg>
