<svg width="66" height="66" viewBox="0 0 66 66" fill="none" xmlns="http://www.w3.org/2000/svg">
<mask id="mask0_1558_2583" style="mask-type:alpha" maskUnits="userSpaceOnUse" x="0" y="0" width="66" height="66">
<rect width="66" height="66" fill="#D9D9D9"/>
</mask>
<g mask="url(#mask0_1558_2583)">
<path d="M24.75 48.8125H41.25C41.8353 48.8125 42.3253 48.615 42.7199 48.2199C43.115 47.8252 43.3125 47.3353 43.3125 46.75C43.3125 46.1647 43.115 45.6748 42.7199 45.2801C42.3253 44.885 41.8353 44.6875 41.25 44.6875H24.75C24.1647 44.6875 23.6747 44.885 23.2801 45.2801C22.885 45.6748 22.6875 46.1647 22.6875 46.75C22.6875 47.3353 22.885 47.8252 23.2801 48.2199C23.6747 48.615 24.1647 48.8125 24.75 48.8125ZM24.75 37.8125H41.25C41.8353 37.8125 42.3253 37.615 42.7199 37.2199C43.115 36.8253 43.3125 36.3353 43.3125 35.75C43.3125 35.1647 43.115 34.6747 42.7199 34.2801C42.3253 33.885 41.8353 33.6875 41.25 33.6875H24.75C24.1647 33.6875 23.6747 33.885 23.2801 34.2801C22.885 34.6747 22.6875 35.1647 22.6875 35.75C22.6875 36.3353 22.885 36.8253 23.2801 37.2199C23.6747 37.615 24.1647 37.8125 24.75 37.8125ZM17.3463 59.125C15.9571 59.125 14.7812 58.6437 13.8188 57.6813C12.8563 56.7188 12.375 55.5429 12.375 54.1537V11.8463C12.375 10.4571 12.8563 9.28125 13.8188 8.31875C14.7812 7.35625 15.9571 6.875 17.3463 6.875H37.1305C37.7933 6.875 38.4306 7.00379 39.0424 7.26137C39.6539 7.5185 40.1853 7.87279 40.6368 8.32425L52.1758 19.8632C52.6272 20.3147 52.9815 20.8461 53.2386 21.4576C53.4962 22.0694 53.625 22.7067 53.625 23.3695V54.1537C53.625 55.5429 53.1437 56.7188 52.1813 57.6813C51.2188 58.6437 50.0429 59.125 48.6537 59.125H17.3463ZM37.125 20.889V11H17.3463C17.1346 11 16.9407 11.0882 16.7647 11.2647C16.5882 11.4407 16.5 11.6346 16.5 11.8463V54.1537C16.5 54.3654 16.5882 54.5593 16.7647 54.7353C16.9407 54.9118 17.1346 55 17.3463 55H48.6537C48.8654 55 49.0593 54.9118 49.2353 54.7353C49.4118 54.5593 49.5 54.3654 49.5 54.1537V23.375H39.611C38.902 23.375 38.3105 23.1378 37.8366 22.6634C37.3622 22.1895 37.125 21.598 37.125 20.889Z" fill="#9887A7"/>
</g>
</svg>
