<svg width="240" height="240" viewBox="0 0 240 240" fill="none" xmlns="http://www.w3.org/2000/svg">
<circle cx="120" cy="120" r="120" fill="#8D20E3" fill-opacity="0.2"/>
<g clip-path="url(#clip0_31_17750)">
<path d="M60.9779 132.499L60.8217 122.863C60.8175 122.603 61.1877 122.551 61.2552 122.802L63.1298 129.769C63.1627 129.891 63.2916 129.961 63.4118 129.921L68.0703 128.384C68.2115 128.337 68.3574 128.441 68.3599 128.589L68.5092 137.35C68.5135 137.603 68.1589 137.663 68.0794 137.423L66.0536 131.317C66.015 131.201 65.8894 131.138 65.7735 131.178L61.2692 132.704C61.1276 132.752 60.9803 132.648 60.9779 132.499Z" fill="white"/>
<path fill-rule="evenodd" clip-rule="evenodd" d="M50.5814 134.59C52.6459 135.434 55.4471 135.856 57.2044 135.856C58.9618 135.856 59.099 129.612 58.1247 128.482C57.3731 127.611 55.1657 126.411 53.3241 125.41C52.7781 125.113 52.2642 124.833 51.83 124.585C50.9144 124.058 49.8748 124.746 48.9251 125.375C47.9209 126.039 47.0174 126.637 46.4675 125.661C45.3976 123.748 44.8626 121.63 44.8626 119.31C44.8626 117.562 45.179 115.919 45.812 114.382C46.4449 112.845 47.3038 111.526 48.3888 110.426C49.1409 109.664 49.9979 109.014 50.9599 108.475L48.6601 104.956C46.1133 106.388 44.1167 108.369 42.67 110.901C41.2233 113.418 40.5 116.22 40.5 119.31C40.5 121.63 40.9219 123.815 41.7658 125.865C42.6248 127.899 43.7927 129.647 45.2695 131.109C46.7463 132.571 48.5169 133.731 50.5814 134.59Z" fill="white"/>
<path fill-rule="evenodd" clip-rule="evenodd" d="M73.7476 120.485C73.5496 122.707 72.6385 125.389 71.8318 126.95C71.025 128.511 65.415 125.767 64.8586 124.383C64.4295 123.315 64.3767 120.803 64.3327 118.707C64.3196 118.086 64.3073 117.501 64.2862 117.002C64.238 115.946 65.3266 115.338 66.321 114.783C67.3724 114.196 68.3185 113.668 67.704 112.731C66.4949 110.902 64.8596 109.455 62.7979 108.39C61.2449 107.587 59.6404 107.114 57.9843 106.971C56.3282 106.828 54.7624 106.986 53.287 107.444C52.2644 107.763 51.2933 108.225 50.3736 108.833L48.3028 105.174C50.7437 103.569 53.4208 102.705 56.3341 102.582C59.2339 102.452 62.0561 103.096 64.8006 104.514C66.8623 105.579 68.6098 106.957 70.0431 108.648C71.4561 110.345 72.473 112.185 73.0936 114.168C73.7143 116.151 73.9323 118.257 73.7476 120.485Z" fill="white"/>
</g>
<g clip-path="url(#clip1_31_17750)">
<path d="M100.985 115.306H98.3361C98.1795 114.544 97.9053 113.875 97.5137 113.298C97.1292 112.721 96.6593 112.237 96.1039 111.845C95.5556 111.447 94.9469 111.148 94.2776 110.948C93.6083 110.749 92.9105 110.649 92.1842 110.649C90.8598 110.649 89.6601 110.984 88.5849 111.653C87.5169 112.322 86.666 113.309 86.0323 114.612C85.4057 115.915 85.0925 117.513 85.0925 119.407C85.0925 121.301 85.4057 122.9 86.0323 124.203C86.666 125.506 87.5169 126.492 88.5849 127.161C89.6601 127.83 90.8598 128.165 92.1842 128.165C92.9105 128.165 93.6083 128.065 94.2776 127.866C94.9469 127.667 95.5556 127.371 96.1039 126.979C96.6593 126.581 97.1292 126.093 97.5137 125.516C97.9053 124.932 98.1795 124.263 98.3361 123.508H100.985C100.785 124.626 100.422 125.627 99.8954 126.509C99.3685 127.392 98.7135 128.144 97.9302 128.763C97.147 129.375 96.2677 129.842 95.2922 130.162C94.3238 130.483 93.2878 130.643 92.1842 130.643C90.3187 130.643 88.6597 130.187 87.2072 129.276C85.7546 128.364 84.6118 127.068 83.7788 125.388C82.9457 123.708 82.5292 121.714 82.5292 119.407C82.5292 117.1 82.9457 115.106 83.7788 113.426C84.6118 111.746 85.7546 110.45 87.2072 109.538C88.6597 108.627 90.3187 108.171 92.1842 108.171C93.2878 108.171 94.3238 108.332 95.2922 108.652C96.2677 108.972 97.147 109.442 97.9302 110.062C98.7135 110.674 99.3685 111.422 99.8954 112.305C100.422 113.18 100.785 114.181 100.985 115.306ZM109.751 130.728C108.711 130.728 107.768 130.532 106.92 130.141C106.073 129.742 105.4 129.169 104.902 128.421C104.403 127.667 104.154 126.755 104.154 125.687C104.154 124.747 104.339 123.985 104.71 123.401C105.08 122.811 105.575 122.348 106.194 122.013C106.814 121.678 107.497 121.429 108.245 121.265C109 121.095 109.758 120.959 110.52 120.86C111.517 120.731 112.325 120.635 112.944 120.571C113.571 120.5 114.026 120.383 114.311 120.219C114.603 120.055 114.749 119.77 114.749 119.364V119.279C114.749 118.225 114.461 117.406 113.884 116.822C113.314 116.239 112.449 115.947 111.289 115.947C110.085 115.947 109.142 116.21 108.458 116.737C107.775 117.264 107.294 117.826 107.017 118.424L104.624 117.57C105.051 116.573 105.621 115.797 106.333 115.242C107.052 114.679 107.835 114.288 108.683 114.067C109.537 113.839 110.377 113.725 111.203 113.725C111.73 113.725 112.335 113.789 113.019 113.917C113.71 114.038 114.375 114.291 115.016 114.676C115.664 115.06 116.202 115.64 116.629 116.417C117.056 117.193 117.27 118.232 117.27 119.535V130.344H114.749V128.122H114.621C114.45 128.478 114.165 128.859 113.767 129.265C113.368 129.671 112.837 130.016 112.175 130.301C111.513 130.586 110.705 130.728 109.751 130.728ZM110.135 128.464C111.132 128.464 111.972 128.268 112.656 127.877C113.346 127.485 113.866 126.979 114.215 126.36C114.571 125.74 114.749 125.089 114.749 124.405V122.098C114.642 122.227 114.407 122.344 114.044 122.451C113.688 122.551 113.275 122.64 112.805 122.718C112.343 122.789 111.89 122.853 111.449 122.91C111.015 122.96 110.662 123.003 110.392 123.038C109.736 123.124 109.124 123.263 108.555 123.455C107.992 123.64 107.536 123.921 107.187 124.299C106.846 124.669 106.675 125.174 106.675 125.815C106.675 126.691 106.999 127.353 107.647 127.802C108.302 128.243 109.131 128.464 110.135 128.464ZM124.391 108.47V130.344H121.87V108.47H124.391ZM131.528 108.47V130.344H129.007V108.47H131.528ZM144.433 123.508H147.338L149.773 126.712L150.414 127.567L154.045 132.394H151.14L148.747 129.19L148.149 128.379L144.433 123.508ZM154.942 119.407C154.942 121.714 154.525 123.708 153.692 125.388C152.859 127.068 151.717 128.364 150.264 129.276C148.811 130.187 147.152 130.643 145.287 130.643C143.421 130.643 141.762 130.187 140.31 129.276C138.857 128.364 137.715 127.068 136.882 125.388C136.048 123.708 135.632 121.714 135.632 119.407C135.632 117.1 136.048 115.106 136.882 113.426C137.715 111.746 138.857 110.45 140.31 109.538C141.762 108.627 143.421 108.171 145.287 108.171C147.152 108.171 148.811 108.627 150.264 109.538C151.717 110.45 152.859 111.746 153.692 113.426C154.525 115.106 154.942 117.1 154.942 119.407ZM152.379 119.407C152.379 117.513 152.062 115.915 151.428 114.612C150.802 113.309 149.951 112.322 148.876 111.653C147.808 110.984 146.611 110.649 145.287 110.649C143.963 110.649 142.763 110.984 141.688 111.653C140.62 112.322 139.769 113.309 139.135 114.612C138.509 115.915 138.195 117.513 138.195 119.407C138.195 121.301 138.509 122.9 139.135 124.203C139.769 125.506 140.62 126.492 141.688 127.161C142.763 127.83 143.963 128.165 145.287 128.165C146.611 128.165 147.808 127.83 148.876 127.161C149.951 126.492 150.802 125.506 151.428 124.203C152.062 122.9 152.379 121.301 152.379 119.407ZM162.771 130.344L157.772 113.939H160.421L163.967 126.499H164.138L167.641 113.939H170.332L173.793 126.456H173.964L177.51 113.939H180.158L175.16 130.344H172.682L169.094 117.741H168.837L165.249 130.344H162.771ZM183.491 130.344V113.939H186.011V130.344H183.491ZM184.772 111.205C184.281 111.205 183.857 111.037 183.501 110.703C183.152 110.368 182.978 109.966 182.978 109.496C182.978 109.026 183.152 108.623 183.501 108.289C183.857 107.954 184.281 107.787 184.772 107.787C185.264 107.787 185.684 107.954 186.033 108.289C186.389 108.623 186.567 109.026 186.567 109.496C186.567 109.966 186.389 110.368 186.033 110.703C185.684 111.037 185.264 111.205 184.772 111.205ZM192.977 124.363L192.935 121.244H193.447L200.625 113.939H203.743L196.096 121.671H195.883L192.977 124.363ZM190.628 130.344V108.47H193.148V130.344H190.628ZM201.052 130.344L194.644 122.227L196.438 120.475L204.256 130.344H201.052Z" fill="white"/>
</g>
<g clip-path="url(#clip2_31_17750)">
<path d="M100.985 115.306H98.3361C98.1795 114.544 97.9053 113.875 97.5137 113.298C97.1292 112.721 96.6593 112.237 96.1039 111.846C95.5556 111.447 94.9469 111.148 94.2776 110.948C93.6083 110.749 92.9105 110.649 92.1842 110.649C90.8598 110.649 89.6601 110.984 88.5849 111.653C87.5169 112.323 86.666 113.309 86.0323 114.612C85.4057 115.915 85.0925 117.513 85.0925 119.407C85.0925 121.301 85.4057 122.9 86.0323 124.203C86.666 125.506 87.5169 126.492 88.5849 127.161C89.6601 127.831 90.8598 128.165 92.1842 128.165C92.9105 128.165 93.6083 128.066 94.2776 127.866C94.9469 127.667 95.5556 127.371 96.1039 126.98C96.6593 126.581 97.1292 126.093 97.5137 125.517C97.9053 124.933 98.1795 124.263 98.3361 123.509H100.985C100.785 124.626 100.422 125.627 99.8954 126.51C99.3685 127.393 98.7135 128.144 97.9302 128.763C97.147 129.376 96.2677 129.842 95.2922 130.162C94.3238 130.483 93.2878 130.643 92.1842 130.643C90.3187 130.643 88.6597 130.187 87.2072 129.276C85.7546 128.365 84.6118 127.069 83.7788 125.388C82.9457 123.708 82.5292 121.714 82.5292 119.407C82.5292 117.1 82.9457 115.107 83.7788 113.426C84.6118 111.746 85.7546 110.45 87.2072 109.539C88.6597 108.627 90.3187 108.172 92.1842 108.172C93.2878 108.172 94.3238 108.332 95.2922 108.652C96.2677 108.973 97.147 109.443 97.9302 110.062C98.7135 110.674 99.3685 111.422 99.8954 112.305C100.422 113.181 100.785 114.181 100.985 115.306ZM109.751 130.729C108.711 130.729 107.768 130.533 106.92 130.141C106.073 129.742 105.4 129.169 104.902 128.422C104.403 127.667 104.154 126.755 104.154 125.687C104.154 124.748 104.339 123.986 104.71 123.402C105.08 122.811 105.575 122.348 106.194 122.013C106.814 121.679 107.497 121.429 108.245 121.266C109 121.095 109.758 120.96 110.52 120.86C111.517 120.732 112.325 120.636 112.944 120.572C113.571 120.5 114.026 120.383 114.311 120.219C114.603 120.055 114.749 119.77 114.749 119.365V119.279C114.749 118.225 114.461 117.407 113.884 116.823C113.314 116.239 112.449 115.947 111.289 115.947C110.085 115.947 109.142 116.21 108.458 116.737C107.775 117.264 107.294 117.827 107.017 118.425L104.624 117.57C105.051 116.573 105.621 115.797 106.333 115.242C107.052 114.68 107.835 114.288 108.683 114.067C109.537 113.839 110.377 113.725 111.203 113.725C111.73 113.725 112.335 113.789 113.019 113.918C113.71 114.039 114.375 114.291 115.016 114.676C115.664 115.06 116.202 115.641 116.629 116.417C117.056 117.193 117.27 118.233 117.27 119.536V130.344H114.749V128.123H114.621C114.45 128.479 114.165 128.859 113.767 129.265C113.368 129.671 112.837 130.017 112.175 130.301C111.513 130.586 110.705 130.729 109.751 130.729ZM110.135 128.464C111.132 128.464 111.972 128.268 112.656 127.877C113.346 127.485 113.866 126.98 114.215 126.36C114.571 125.741 114.749 125.089 114.749 124.406V122.099C114.642 122.227 114.407 122.344 114.044 122.451C113.688 122.551 113.275 122.64 112.805 122.718C112.343 122.789 111.89 122.854 111.449 122.911C111.015 122.96 110.662 123.003 110.392 123.039C109.736 123.124 109.124 123.263 108.555 123.455C107.992 123.64 107.536 123.922 107.187 124.299C106.846 124.669 106.675 125.175 106.675 125.816C106.675 126.691 106.999 127.354 107.647 127.802C108.302 128.244 109.131 128.464 110.135 128.464ZM124.391 108.471V130.344H121.87V108.471H124.391ZM131.528 108.471V130.344H129.007V108.471H131.528ZM144.433 123.509H147.338L149.773 126.713L150.414 127.567L154.045 132.395H151.14L148.747 129.191L148.149 128.379L144.433 123.509ZM154.942 119.407C154.942 121.714 154.525 123.708 153.692 125.388C152.859 127.069 151.717 128.365 150.264 129.276C148.811 130.187 147.152 130.643 145.287 130.643C143.421 130.643 141.762 130.187 140.31 129.276C138.857 128.365 137.715 127.069 136.882 125.388C136.048 123.708 135.632 121.714 135.632 119.407C135.632 117.1 136.048 115.107 136.882 113.426C137.715 111.746 138.857 110.45 140.31 109.539C141.762 108.627 143.421 108.172 145.287 108.172C147.152 108.172 148.811 108.627 150.264 109.539C151.717 110.45 152.859 111.746 153.692 113.426C154.525 115.107 154.942 117.1 154.942 119.407ZM152.379 119.407C152.379 117.513 152.062 115.915 151.428 114.612C150.802 113.309 149.951 112.323 148.876 111.653C147.808 110.984 146.611 110.649 145.287 110.649C143.963 110.649 142.763 110.984 141.688 111.653C140.62 112.323 139.769 113.309 139.135 114.612C138.509 115.915 138.195 117.513 138.195 119.407C138.195 121.301 138.509 122.9 139.135 124.203C139.769 125.506 140.62 126.492 141.688 127.161C142.763 127.831 143.963 128.165 145.287 128.165C146.611 128.165 147.808 127.831 148.876 127.161C149.951 126.492 150.802 125.506 151.428 124.203C152.062 122.9 152.379 121.301 152.379 119.407ZM162.771 130.344L157.772 113.939H160.421L163.967 126.499H164.138L167.641 113.939H170.332L173.793 126.456H173.964L177.51 113.939H180.158L175.16 130.344H172.682L169.094 117.741H168.837L165.249 130.344H162.771ZM183.491 130.344V113.939H186.011V130.344H183.491ZM184.772 111.205C184.281 111.205 183.857 111.037 183.501 110.703C183.152 110.368 182.978 109.966 182.978 109.496C182.978 109.026 183.152 108.624 183.501 108.289C183.857 107.954 184.281 107.787 184.772 107.787C185.264 107.787 185.684 107.954 186.033 108.289C186.389 108.624 186.567 109.026 186.567 109.496C186.567 109.966 186.389 110.368 186.033 110.703C185.684 111.037 185.264 111.205 184.772 111.205ZM192.977 124.363L192.935 121.244H193.447L200.625 113.939H203.743L196.096 121.672H195.883L192.977 124.363ZM190.628 130.344V108.471H193.148V130.344H190.628ZM201.052 130.344L194.644 122.227L196.438 120.475L204.256 130.344H201.052Z" fill="white"/>
</g>
<defs>
<clipPath id="clip0_31_17750">
<rect width="36" height="36" fill="white" transform="translate(39 102)"/>
</clipPath>
<clipPath id="clip1_31_17750">
<rect width="50.3998" height="35.9998" fill="white" transform="translate(81 102)"/>
</clipPath>
<clipPath id="clip2_31_17750">
<rect width="69.5997" height="35.9998" fill="white" transform="translate(131.399 102)"/>
</clipPath>
</defs>
</svg>
