<svg width="106" height="23" viewBox="0 0 106 23" fill="none" xmlns="http://www.w3.org/2000/svg">
<g clip-path="url(#clip0_149_2095)">
<path d="M13.8672 19.2431L13.7687 13.1636C13.766 12.9996 13.9995 12.9668 14.0421 13.1252L15.2249 17.5207C15.2457 17.5979 15.327 17.6417 15.4029 17.6167L18.3422 16.6468C18.4312 16.6174 18.5233 16.6828 18.5249 16.7766L18.6191 22.3043C18.6218 22.4636 18.3981 22.5017 18.3479 22.3505L17.0697 18.4976C17.0454 18.4244 16.9661 18.3849 16.893 18.4097L14.051 19.3726C13.9616 19.4029 13.8687 19.3374 13.8672 19.2431Z" fill="white"/>
<path fill-rule="evenodd" clip-rule="evenodd" d="M7.30767 20.5628C8.61027 21.0952 10.3776 21.3614 11.4865 21.3614C12.5953 21.3614 12.6818 17.4219 12.0671 16.7091C11.5929 16.1593 10.2001 15.4021 9.03815 14.7704C8.69365 14.5831 8.36944 14.4068 8.09547 14.2503C7.51779 13.9175 6.8618 14.3517 6.26259 14.7483C5.62902 15.1676 5.05891 15.5449 4.71197 14.9292C4.03689 13.7217 3.69936 12.3858 3.69936 10.9216C3.69936 9.81866 3.89903 8.78228 4.29837 7.81246C4.6977 6.84264 5.23966 6.01068 5.92424 5.3166C6.39875 4.83551 6.93948 4.42521 7.54645 4.08572L6.09539 1.86517C4.48853 2.76844 3.22871 4.01875 2.31594 5.6161C1.40316 7.20395 0.946777 8.97245 0.946777 10.9216C0.946777 12.3858 1.213 13.7645 1.74545 15.0576C2.28741 16.3412 3.02429 17.4441 3.95608 18.3664C4.88787 19.2887 6.00506 20.0208 7.30767 20.5628Z" fill="white"/>
<path fill-rule="evenodd" clip-rule="evenodd" d="M21.9243 11.6633C21.7993 13.0649 21.2245 14.7573 20.7155 15.7423C20.2065 16.7274 16.6668 14.9958 16.3158 14.1224C16.045 13.4488 16.0117 11.8638 15.9839 10.5415C15.9757 10.1495 15.9679 9.78054 15.9546 9.46529C15.9242 8.79932 16.611 8.41585 17.2385 8.06557C17.9018 7.69521 18.4988 7.36194 18.1111 6.77106C17.3482 5.617 16.3163 4.70387 15.0155 4.03168C14.0357 3.52536 13.0233 3.22698 11.9784 3.13654C10.9335 3.0461 9.94555 3.14565 9.01465 3.4352C8.36942 3.63589 7.75668 3.92792 7.17644 4.31131L5.86984 2.0028C7.40996 0.989927 9.09907 0.444681 10.9372 0.367065C12.7669 0.285085 14.5475 0.691492 16.2791 1.58628C17.58 2.25847 18.6826 3.12789 19.5869 4.19454C20.4785 5.26527 21.12 6.42623 21.5116 7.67742C21.9032 8.92861 22.0408 10.2572 21.9243 11.6633Z" fill="white"/>
</g>
<g clip-path="url(#clip1_149_2095)">
<path d="M39.1095 8.09772H37.4383C37.3395 7.61702 37.1665 7.19472 36.9194 6.83083C36.6768 6.46693 36.3803 6.16144 36.0299 5.91435C35.684 5.66277 35.2998 5.47409 34.8775 5.34829C34.4553 5.2225 34.015 5.15961 33.5567 5.15961C32.7211 5.15961 31.9641 5.37076 31.2858 5.79305C30.6119 6.21535 30.075 6.83757 29.6752 7.6597C29.2799 8.48183 29.0822 9.4904 29.0822 10.6854C29.0822 11.8804 29.2799 12.889 29.6752 13.7111C30.075 14.5333 30.6119 15.1555 31.2858 15.5778C31.9641 16.0001 32.7211 16.2112 33.5567 16.2112C34.015 16.2112 34.4553 16.1483 34.8775 16.0225C35.2998 15.8967 35.684 15.7103 36.0299 15.4632C36.3803 15.2116 36.6768 14.9039 36.9194 14.54C37.1665 14.1716 37.3395 13.7493 37.4383 13.2731H39.1095C38.9837 13.9784 38.7546 14.6096 38.4222 15.1667C38.0897 15.7238 37.6764 16.1977 37.1822 16.5886C36.688 16.975 36.1332 17.2692 35.5177 17.4714C34.9068 17.6735 34.2531 17.7746 33.5567 17.7746C32.3797 17.7746 31.3329 17.4871 30.4165 16.9121C29.5 16.337 28.7789 15.5194 28.2533 14.4591C27.7277 13.3989 27.4649 12.141 27.4649 10.6854C27.4649 9.22984 27.7277 7.97193 28.2533 6.91169C28.7789 5.85146 29.5 5.03382 30.4165 4.45877C31.3329 3.88373 32.3797 3.59621 33.5567 3.59621C34.2531 3.59621 34.9068 3.69729 35.5177 3.89945C36.1332 4.10162 36.688 4.39813 37.1822 4.78897C37.6764 5.17533 38.0897 5.64705 38.4222 6.20412C38.7546 6.7567 38.9837 7.3879 39.1095 8.09772ZM44.6404 17.8285C43.9845 17.8285 43.3892 17.705 42.8546 17.4579C42.32 17.2063 41.8954 16.8447 41.581 16.373C41.2665 15.8967 41.1092 15.3217 41.1092 14.6478C41.1092 14.0548 41.2261 13.5741 41.4597 13.2057C41.6933 12.8328 42.0055 12.5408 42.3964 12.3297C42.7872 12.1185 43.2185 11.9613 43.6902 11.858C44.1664 11.7501 44.6449 11.6648 45.1256 11.6019C45.7545 11.521 46.2644 11.4604 46.6553 11.4199C47.0506 11.375 47.3381 11.3009 47.5178 11.1976C47.702 11.0942 47.7941 10.9145 47.7941 10.6585V10.6046C47.7941 9.93966 47.6122 9.42302 47.2483 9.05463C46.8889 8.68624 46.343 8.50205 45.6108 8.50205C44.8515 8.50205 44.2563 8.66827 43.825 9.00072C43.3937 9.33317 43.0904 9.68808 42.9152 10.0654L41.4058 9.52634C41.6753 8.89739 42.0347 8.40771 42.484 8.05729C42.9377 7.70238 43.4319 7.45529 43.9665 7.31602C44.5056 7.17226 45.0357 7.10038 45.5568 7.10038C45.8893 7.10038 46.2712 7.14081 46.7024 7.22168C47.1382 7.29805 47.5583 7.45754 47.9626 7.70013C48.3714 7.94273 48.7106 8.30887 48.9802 8.79856C49.2497 9.28824 49.3845 9.94415 49.3845 10.7663V17.5859H47.7941V16.1843H47.7133C47.6054 16.4089 47.4257 16.6492 47.1742 16.9053C46.9226 17.1614 46.5879 17.3793 46.1701 17.559C45.7523 17.7387 45.2424 17.8285 44.6404 17.8285ZM44.883 16.3999C45.5119 16.3999 46.042 16.2764 46.4733 16.0293C46.9091 15.7822 47.2371 15.4632 47.4572 15.0724C47.6818 14.6815 47.7941 14.2705 47.7941 13.8392V12.3836C47.7267 12.4645 47.5785 12.5386 47.3494 12.606C47.1247 12.6689 46.8642 12.725 46.5677 12.7744C46.2757 12.8194 45.9904 12.8598 45.7118 12.8957C45.4378 12.9272 45.2154 12.9541 45.0447 12.9766C44.6314 13.0305 44.245 13.1181 43.8856 13.2394C43.5307 13.3562 43.2432 13.5337 43.0231 13.7718C42.8074 14.0054 42.6996 14.3244 42.6996 14.7287C42.6996 15.2813 42.904 15.6991 43.3128 15.9821C43.7261 16.2606 44.2495 16.3999 44.883 16.3999ZM53.8776 3.7849V17.5859H52.2872V3.7849H53.8776ZM58.3808 3.7849V17.5859H56.7904V3.7849H58.3808ZM66.5229 13.2731H68.3559L69.8923 15.2947L70.2966 15.8339L72.5878 18.8798H70.7549L69.2454 16.8581L68.868 16.346L66.5229 13.2731ZM73.1539 10.6854C73.1539 12.141 72.8911 13.3989 72.3654 14.4591C71.8398 15.5194 71.1188 16.337 70.2023 16.9121C69.2858 17.4871 68.2391 17.7746 67.062 17.7746C65.885 17.7746 64.8382 17.4871 63.9217 16.9121C63.0053 16.337 62.2842 15.5194 61.7586 14.4591C61.233 13.3989 60.9701 12.141 60.9701 10.6854C60.9701 9.22984 61.233 7.97193 61.7586 6.91169C62.2842 5.85146 63.0053 5.03382 63.9217 4.45877C64.8382 3.88373 65.885 3.59621 67.062 3.59621C68.2391 3.59621 69.2858 3.88373 70.2023 4.45877C71.1188 5.03382 71.8398 5.85146 72.3654 6.91169C72.8911 7.97193 73.1539 9.22984 73.1539 10.6854ZM71.5366 10.6854C71.5366 9.4904 71.3367 8.48183 70.9368 7.6597C70.5415 6.83757 70.0046 6.21535 69.3262 5.79305C68.6524 5.37076 67.8976 5.15961 67.062 5.15961C66.2264 5.15961 65.4694 5.37076 64.791 5.79305C64.1172 6.21535 63.5803 6.83757 63.1805 7.6597C62.7851 8.48183 62.5875 9.4904 62.5875 10.6854C62.5875 11.8804 62.7851 12.889 63.1805 13.7111C63.5803 14.5333 64.1172 15.1555 64.791 15.5778C65.4694 16.0001 66.2264 16.2112 67.062 16.2112C67.8976 16.2112 68.6524 16.0001 69.3262 15.5778C70.0046 15.1555 70.5415 14.5333 70.9368 13.7111C71.3367 12.889 71.5366 11.8804 71.5366 10.6854ZM78.0934 17.5859L74.9397 7.23516H76.6109L78.8482 15.16H78.956L81.1663 7.23516H82.8645L85.0478 15.133H85.1557L87.3929 7.23516H89.0642L85.9104 17.5859H84.347L82.0828 9.63417H81.921L79.6568 17.5859H78.0934ZM91.1667 17.5859V7.23516H92.757V17.5859H91.1667ZM91.9753 5.51003C91.6653 5.51003 91.398 5.40445 91.1734 5.1933C90.9533 4.98215 90.8432 4.72833 90.8432 4.43182C90.8432 4.13531 90.9533 3.88148 91.1734 3.67034C91.398 3.45919 91.6653 3.35361 91.9753 3.35361C92.2853 3.35361 92.5504 3.45919 92.7705 3.67034C92.9951 3.88148 93.1074 4.13531 93.1074 4.43182C93.1074 4.72833 92.9951 4.98215 92.7705 5.1933C92.5504 5.40445 92.2853 5.51003 91.9753 5.51003ZM97.1524 13.8122L97.1254 11.8445H97.4489L101.977 7.23516H103.945L99.1201 12.114H98.9853L97.1524 13.8122ZM95.6699 17.5859V3.7849H97.2602V17.5859H95.6699ZM102.247 17.5859L98.2036 12.4645L99.3358 11.3593L104.269 17.5859H102.247Z" fill="white"/>
</g>
<g clip-path="url(#clip2_149_2095)">
<path d="M39.1098 8.0979H37.4385C37.3397 7.6172 37.1667 7.19491 36.9196 6.83101C36.6771 6.46712 36.3805 6.16163 36.0301 5.91454C35.6842 5.66295 35.3001 5.47427 34.8778 5.34848C34.4555 5.22269 34.0152 5.15979 33.557 5.15979C32.7214 5.15979 31.9644 5.37094 31.286 5.79324C30.6121 6.21554 30.0753 6.83775 29.6754 7.65988C29.2801 8.48202 29.0824 9.49059 29.0824 10.6856C29.0824 11.8806 29.2801 12.8892 29.6754 13.7113C30.0753 14.5334 30.6121 15.1557 31.286 15.578C31.9644 16.0003 32.7214 16.2114 33.557 16.2114C34.0152 16.2114 34.4555 16.1485 34.8778 16.0227C35.3001 15.8969 35.6842 15.7105 36.0301 15.4634C36.3805 15.2118 36.6771 14.9041 36.9196 14.5402C37.1667 14.1718 37.3397 13.7495 37.4385 13.2733H39.1098C38.984 13.9786 38.7548 14.6098 38.4224 15.1669C38.09 15.724 37.6766 16.1979 37.1825 16.5888C36.6883 16.9751 36.1335 17.2694 35.518 17.4716C34.907 17.6737 34.2533 17.7748 33.557 17.7748C32.3799 17.7748 31.3332 17.4873 30.4167 16.9122C29.5002 16.3372 28.7792 15.5196 28.2536 14.4593C27.7279 13.3991 27.4651 12.1412 27.4651 10.6856C27.4651 9.23002 27.7279 7.97211 28.2536 6.91188C28.7792 5.85164 29.5002 5.034 30.4167 4.45896C31.3332 3.88391 32.3799 3.59639 33.557 3.59639C34.2533 3.59639 34.907 3.69747 35.518 3.89964C36.1335 4.1018 36.6883 4.39831 37.1825 4.78916C37.6766 5.17552 38.09 5.64723 38.4224 6.2043C38.7548 6.75688 38.984 7.38808 39.1098 8.0979ZM44.6406 17.8287C43.9847 17.8287 43.3894 17.7052 42.8548 17.4581C42.3202 17.2065 41.8957 16.8449 41.5812 16.3731C41.2667 15.8969 41.1095 15.3219 41.1095 14.648C41.1095 14.055 41.2263 13.5743 41.4599 13.2059C41.6935 12.833 42.0057 12.541 42.3966 12.3299C42.7874 12.1187 43.2187 11.9615 43.6904 11.8581C44.1667 11.7503 44.6451 11.665 45.1258 11.6021C45.7548 11.5212 46.2647 11.4606 46.6555 11.4201C47.0509 11.3752 47.3384 11.3011 47.5181 11.1977C47.7023 11.0944 47.7944 10.9147 47.7944 10.6586V10.6047C47.7944 9.93984 47.6124 9.4232 47.2485 9.05481C46.8891 8.68643 46.3433 8.50223 45.611 8.50223C44.8518 8.50223 44.2565 8.66845 43.8252 9.0009C43.3939 9.33335 43.0907 9.68826 42.9155 10.0656L41.406 9.52653C41.6755 8.89757 42.035 8.40789 42.4842 8.05747C42.9379 7.70256 43.4321 7.45547 43.9667 7.3162C44.5058 7.17244 45.036 7.10056 45.5571 7.10056C45.8895 7.10056 46.2714 7.141 46.7027 7.22186C47.1385 7.29823 47.5585 7.45772 47.9628 7.70031C48.3717 7.94291 48.7108 8.30905 48.9804 8.79874C49.2499 9.28842 49.3847 9.94433 49.3847 10.7665V17.5861H47.7944V16.1845H47.7135C47.6057 16.4091 47.426 16.6494 47.1744 16.9055C46.9228 17.1616 46.5881 17.3795 46.1703 17.5592C45.7525 17.7389 45.2426 17.8287 44.6406 17.8287ZM44.8832 16.4001C45.5122 16.4001 46.0423 16.2765 46.4736 16.0295C46.9093 15.7824 47.2373 15.4634 47.4574 15.0726C47.6821 14.6817 47.7944 14.2706 47.7944 13.8394V12.3838C47.727 12.4646 47.5787 12.5388 47.3496 12.6062C47.125 12.669 46.8644 12.7252 46.5679 12.7746C46.2759 12.8195 45.9906 12.86 45.7121 12.8959C45.438 12.9274 45.2157 12.9543 45.0449 12.9768C44.6316 13.0307 44.2453 13.1183 43.8859 13.2396C43.531 13.3564 43.2434 13.5339 43.0233 13.772C42.8077 14.0056 42.6998 14.3245 42.6998 14.7289C42.6998 15.2815 42.9043 15.6993 43.3131 15.9823C43.7264 16.2608 44.2498 16.4001 44.8832 16.4001ZM53.8778 3.78508V17.5861H52.2875V3.78508H53.8778ZM58.381 3.78508V17.5861H56.7907V3.78508H58.381ZM66.5232 13.2733H68.3561L69.8925 15.2949L70.2969 15.834L72.5881 18.88H70.7551L69.2456 16.8583L68.8683 16.3462L66.5232 13.2733ZM73.1541 10.6856C73.1541 12.1412 72.8913 13.3991 72.3657 14.4593C71.8401 15.5196 71.119 16.3372 70.2025 16.9122C69.2861 17.4873 68.2393 17.7748 67.0623 17.7748C65.8852 17.7748 64.8385 17.4873 63.922 16.9122C63.0055 16.3372 62.2845 15.5196 61.7588 14.4593C61.2332 13.3991 60.9704 12.1412 60.9704 10.6856C60.9704 9.23002 61.2332 7.97211 61.7588 6.91188C62.2845 5.85164 63.0055 5.034 63.922 4.45896C64.8385 3.88391 65.8852 3.59639 67.0623 3.59639C68.2393 3.59639 69.2861 3.88391 70.2025 4.45896C71.119 5.034 71.8401 5.85164 72.3657 6.91188C72.8913 7.97211 73.1541 9.23002 73.1541 10.6856ZM71.5368 10.6856C71.5368 9.49059 71.3369 8.48202 70.9371 7.65988C70.5417 6.83775 70.0049 6.21554 69.3265 5.79324C68.6526 5.37094 67.8979 5.15979 67.0623 5.15979C66.2266 5.15979 65.4697 5.37094 64.7913 5.79324C64.1174 6.21554 63.5805 6.83775 63.1807 7.65988C62.7854 8.48202 62.5877 9.49059 62.5877 10.6856C62.5877 11.8806 62.7854 12.8892 63.1807 13.7113C63.5805 14.5334 64.1174 15.1557 64.7913 15.578C65.4697 16.0003 66.2266 16.2114 67.0623 16.2114C67.8979 16.2114 68.6526 16.0003 69.3265 15.578C70.0049 15.1557 70.5417 14.5334 70.9371 13.7113C71.3369 12.8892 71.5368 11.8806 71.5368 10.6856ZM78.0937 17.5861L74.9399 7.23534H76.6111L78.8484 15.1602H78.9562L81.1665 7.23534H82.8647L85.0481 15.1332H85.1559L87.3932 7.23534H89.0644L85.9107 17.5861H84.3473L82.083 9.63435H81.9213L79.6571 17.5861H78.0937ZM91.1669 17.5861V7.23534H92.7573V17.5861H91.1669ZM91.9756 5.51021C91.6656 5.51021 91.3983 5.40463 91.1736 5.19349C90.9535 4.98234 90.8434 4.72851 90.8434 4.432C90.8434 4.1355 90.9535 3.88167 91.1736 3.67052C91.3983 3.45937 91.6656 3.3538 91.9756 3.3538C92.2855 3.3538 92.5506 3.45937 92.7707 3.67052C92.9954 3.88167 93.1077 4.1355 93.1077 4.432C93.1077 4.72851 92.9954 4.98234 92.7707 5.19349C92.5506 5.40463 92.2855 5.51021 91.9756 5.51021ZM97.1526 13.8124L97.1257 11.8447H97.4491L101.978 7.23534H103.945L99.1204 12.1142H98.9856L97.1526 13.8124ZM95.6701 17.5861V3.78508H97.2605V17.5861H95.6701ZM102.247 17.5861L98.2039 12.4646L99.336 11.3595L104.269 17.5861H102.247Z" fill="white"/>
</g>
<defs>
<clipPath id="clip0_149_2095">
<rect width="23.5557" height="22.7143" fill="white"/>
</clipPath>
<clipPath id="clip1_149_2095">
<rect width="32.9778" height="22.7141" fill="white" transform="translate(27.4814)"/>
</clipPath>
<clipPath id="clip2_149_2095">
<rect width="45.5407" height="22.7141" fill="white" transform="translate(60.4592 6.10352e-05)"/>
</clipPath>
</defs>
</svg>
