<svg width="28" height="28" viewBox="0 0 28 28" fill="none" xmlns="http://www.w3.org/2000/svg">
<mask id="mask0_304_3096" style="mask-type:alpha" maskUnits="userSpaceOnUse" x="0" y="0" width="28" height="28">
<rect width="28" height="28" fill="#D9D9D9"/>
</mask>
<g mask="url(#mask0_304_3096)">
<path d="M8.16666 16.0417H19.8333C20.0812 16.0417 20.2891 15.9578 20.4568 15.79C20.6245 15.6223 20.7083 15.4144 20.7083 15.1663C20.7083 14.9183 20.6245 14.7105 20.4568 14.543C20.2891 14.3755 20.0812 14.2917 19.8333 14.2917H8.16666C7.91874 14.2917 7.71094 14.3756 7.54325 14.5434C7.37554 14.7112 7.29169 14.9191 7.29169 15.1671C7.29169 15.4151 7.37554 15.6229 7.54325 15.7904C7.71094 15.9579 7.91874 16.0417 8.16666 16.0417ZM8.16666 12.5417H19.8333C20.0812 12.5417 20.2891 12.4578 20.4568 12.29C20.6245 12.1223 20.7083 11.9144 20.7083 11.6663C20.7083 11.4183 20.6245 11.2105 20.4568 11.043C20.2891 10.8755 20.0812 10.7917 19.8333 10.7917H8.16666C7.91874 10.7917 7.71094 10.8756 7.54325 11.0434C7.37554 11.2112 7.29169 11.4191 7.29169 11.6671C7.29169 11.9151 7.37554 12.1229 7.54325 12.2904C7.71094 12.4579 7.91874 12.5417 8.16666 12.5417ZM8.16666 9.04169H19.8333C20.0812 9.04169 20.2891 8.95781 20.4568 8.79004C20.6245 8.62225 20.7083 8.41435 20.7083 8.16634C20.7083 7.91831 20.6245 7.71053 20.4568 7.54302C20.2891 7.37551 20.0812 7.29175 19.8333 7.29175H8.16666C7.91874 7.29175 7.71094 7.37563 7.54325 7.5434C7.37554 7.71119 7.29169 7.91909 7.29169 8.1671C7.29169 8.41513 7.37554 8.6229 7.54325 8.79042C7.71094 8.95793 7.91874 9.04169 8.16666 9.04169ZM5.02567 20.4167C4.43635 20.4167 3.93752 20.2125 3.52919 19.8042C3.12085 19.3959 2.91669 18.897 2.91669 18.3077V5.02573C2.91669 4.43641 3.12085 3.93758 3.52919 3.52925C3.93752 3.12091 4.43635 2.91675 5.02567 2.91675H22.9743C23.5636 2.91675 24.0625 3.12091 24.4708 3.52925C24.8791 3.93758 25.0833 4.43641 25.0833 5.02573V21.9962C25.0833 22.4665 24.8675 22.7931 24.436 22.9759C24.0045 23.1588 23.6227 23.0843 23.2907 22.7522L20.9551 20.4167H5.02567Z" fill="white"/>
</g>
</svg>
