<svg width="28" height="28" viewBox="0 0 28 28" fill="none" xmlns="http://www.w3.org/2000/svg">
<mask id="mask0_304_3025" style="mask-type:alpha" maskUnits="userSpaceOnUse" x="0" y="0" width="28" height="28">
<rect width="28" height="28" fill="#D9D9D9"/>
</mask>
<g mask="url(#mask0_304_3025)">
<path d="M14 15.75C13.1849 15.75 12.495 15.4677 11.9303 14.9031C11.3657 14.3384 11.0834 13.6485 11.0834 12.8334V5.83339C11.0834 5.01824 11.3657 4.32834 11.9303 3.76369C12.495 3.19906 13.1849 2.91675 14 2.91675C14.8152 2.91675 15.5051 3.19906 16.0697 3.76369C16.6343 4.32834 16.9167 5.01824 16.9167 5.83339V12.8334C16.9167 13.6485 16.6343 14.3384 16.0697 14.9031C15.5051 15.4677 14.8152 15.75 14 15.75ZM13.1251 23.3334V20.3628C11.3885 20.1624 9.90026 19.449 8.66031 18.2225C7.42035 16.996 6.69418 15.501 6.48179 13.7375C6.45039 13.4892 6.51545 13.2765 6.67697 13.0992C6.83852 12.922 7.04343 12.8334 7.29172 12.8334C7.54 12.8334 7.7479 12.919 7.91542 13.0903C8.08293 13.2615 8.19436 13.4713 8.2497 13.7196C8.46209 15.148 9.11534 16.3296 10.2095 17.2645C11.3036 18.1993 12.5671 18.6667 14 18.6667C15.4524 18.6667 16.7208 18.1944 17.8052 17.2499C18.8896 16.3053 19.538 15.1286 19.7503 13.7196C19.8057 13.4713 19.9171 13.2615 20.0846 13.0903C20.2521 12.919 20.46 12.8334 20.7083 12.8334C20.9566 12.8334 21.1615 12.922 21.3231 13.0992C21.4846 13.2765 21.5497 13.4892 21.5183 13.7375C21.3059 15.4621 20.5846 16.9455 19.3543 18.1877C18.1241 19.4299 16.631 20.1549 14.875 20.3628V23.3334C14.875 23.5817 14.7912 23.7896 14.6237 23.9571C14.4562 24.1246 14.2483 24.2084 14 24.2084C13.7517 24.2084 13.5438 24.1246 13.3763 23.9571C13.2088 23.7896 13.1251 23.5817 13.1251 23.3334Z" fill="white"/>
</g>
</svg>
