<svg width="28" height="28" viewBox="0 0 28 28" fill="none" xmlns="http://www.w3.org/2000/svg">
<mask id="mask0_304_3091" style="mask-type:alpha" maskUnits="userSpaceOnUse" x="0" y="0" width="28" height="28">
<rect width="28" height="28" fill="#D9D9D9"/>
</mask>
<g mask="url(#mask0_304_3091)">
<path d="M20.1138 16.5435L18.826 15.2332C18.9367 15.0209 19.0384 14.7857 19.1311 14.5276C19.2239 14.2696 19.2919 13.9941 19.3353 13.7009C19.3906 13.4526 19.5021 13.2458 19.6696 13.0806C19.8371 12.9153 20.045 12.8327 20.2933 12.8327C20.5416 12.8327 20.7465 12.9231 20.908 13.1041C21.0695 13.2851 21.1384 13.4997 21.1144 13.748C21.0397 14.2805 20.9174 14.7774 20.7476 15.2389C20.5779 15.7003 20.3666 16.1352 20.1138 16.5435ZM16.358 12.7518L10.6684 7.03969V5.83265C10.6684 5.0175 10.9507 4.32761 11.5153 3.76296C12.0799 3.19833 12.7698 2.91602 13.585 2.91602C14.4001 2.91602 15.09 3.19833 15.6547 3.76296C16.2193 4.32761 16.5016 5.0175 16.5016 5.83265V12.0698C16.5016 12.2014 16.4866 12.321 16.4567 12.4287C16.4268 12.5364 16.3939 12.6441 16.358 12.7518ZM12.71 23.3327V20.3666C10.9735 20.1632 9.48521 19.4482 8.24526 18.2217C7.0053 16.9952 6.27913 15.5002 6.06674 13.7368C6.03534 13.4885 6.10041 13.2757 6.26195 13.0985C6.42348 12.9213 6.62838 12.8327 6.87667 12.8327C7.12496 12.8327 7.33286 12.9183 7.50037 13.0895C7.66788 13.2608 7.77931 13.4706 7.83465 13.7189C8.04704 15.1473 8.7003 16.3289 9.79441 17.2637C10.8886 18.1986 12.1521 18.666 13.585 18.666C14.3358 18.666 15.0415 18.5321 15.7018 18.2644C16.3622 17.9966 16.9466 17.6257 17.4552 17.1515L18.7026 18.3989C18.1387 18.9284 17.4971 19.3644 16.7776 19.707C16.0581 20.0495 15.2856 20.2694 14.4599 20.3666V23.3327C14.4599 23.5809 14.3762 23.7888 14.2087 23.9564C14.0412 24.1239 13.8333 24.2076 13.585 24.2076C13.3367 24.2076 13.1288 24.1239 12.9613 23.9564C12.7938 23.7888 12.71 23.5809 12.71 23.3327ZM22.5639 24.7191L2.57348 4.72872C2.41195 4.5672 2.32931 4.36416 2.32556 4.11961C2.32183 3.87508 2.40447 3.6683 2.57348 3.49929C2.74249 3.33026 2.94739 3.24575 3.18819 3.24575C3.42901 3.24575 3.63393 3.33026 3.80294 3.49929L23.7933 23.4897C23.9549 23.6512 24.0375 23.8542 24.0413 24.0988C24.045 24.3433 23.9623 24.5501 23.7933 24.7191C23.6243 24.8881 23.4194 24.9727 23.1786 24.9727C22.9378 24.9727 22.7329 24.8881 22.5639 24.7191Z" fill="white"/>
</g>
</svg>
