<svg width="66" height="66" viewBox="0 0 66 66" fill="none" xmlns="http://www.w3.org/2000/svg">
<mask id="mask0_1558_4515" style="mask-type:alpha" maskUnits="userSpaceOnUse" x="0" y="0" width="66" height="66">
<rect width="66" height="66" fill="#D9D9D9"/>
</mask>
<g mask="url(#mask0_1558_4515)">
<path d="M11.8463 53.625C10.4791 53.625 9.30875 53.1382 8.33525 52.1647C7.36175 51.1912 6.875 50.0209 6.875 48.6537V11.8463C6.875 10.4791 7.36175 9.30875 8.33525 8.33525C9.30875 7.36175 10.4791 6.875 11.8463 6.875H35.2213C36.5881 6.875 37.7582 7.36175 38.7317 8.33525C39.7052 9.30875 40.1919 10.4791 40.1919 11.8463V21.8199C39.4765 21.9115 38.7739 22.0479 38.0841 22.2289C37.3947 22.4095 36.7226 22.6311 36.0676 22.8938V11.8463C36.0676 11.5993 35.9881 11.3965 35.8291 11.2379C35.6705 11.0793 35.4679 11 35.2213 11H11.8463C11.5993 11 11.3965 11.0793 11.2379 11.2379C11.0793 11.3965 11 11.5993 11 11.8463V48.6537C11 48.9007 11.0793 49.1035 11.2379 49.2621C11.3965 49.4207 11.5993 49.5 11.8463 49.5H21.7883V53.625H11.8463ZM21.7883 46.0467V43.6294C21.7883 43.3196 21.7954 43.0164 21.8096 42.7199C21.8238 42.4238 21.8591 42.1206 21.9154 41.8103C20.9034 41.4757 20.0741 40.8712 19.4274 39.9967C18.7802 39.1222 18.4566 38.1297 18.4566 37.0191C18.4566 35.6088 18.9502 34.4101 19.9375 33.4228C20.9248 32.4356 22.1235 31.9419 23.5338 31.9419C23.763 31.9419 23.9789 31.9605 24.1814 31.9976C24.384 32.0348 24.5999 32.0902 24.8291 32.164C25.1994 31.5508 25.5977 30.954 26.0239 30.3738C26.4497 29.793 26.9012 29.2389 27.3783 28.7114C26.8141 28.4222 26.2082 28.2008 25.5606 28.0473C24.9125 27.8942 24.2369 27.8176 23.5338 27.8176C20.9924 27.8176 18.8233 28.7157 17.0266 30.5119C15.23 32.3086 14.3316 34.4777 14.3316 37.0191C14.3316 39.3003 15.043 41.2702 16.4656 42.9289C17.8883 44.5876 19.6625 45.6269 21.7883 46.0467ZM23.5366 23.375C24.61 23.375 25.5214 22.9994 26.2708 22.2482C27.0197 21.497 27.3941 20.5847 27.3941 19.5112C27.3941 18.4383 27.0185 17.5271 26.2673 16.7777C25.5161 16.0284 24.6038 15.6537 23.5304 15.6537C22.4574 15.6537 21.5463 16.0293 20.7969 16.7805C20.0475 17.5322 19.6728 18.4445 19.6728 19.5174C19.6728 20.5909 20.0486 21.502 20.8003 22.2509C21.5515 23.0003 22.4636 23.375 23.5366 23.375ZM34.639 59.125H32.7882C31.4215 59.125 30.2514 58.6382 29.2779 57.6647C28.3044 56.6912 27.8176 55.5209 27.8176 54.1537V43.2596C27.8176 38.9114 29.34 35.2154 32.3847 32.1716C35.4299 29.1278 39.1275 27.6059 43.4775 27.6059C47.8275 27.6059 51.5229 29.1278 54.5634 32.1716C57.6045 35.2154 59.125 38.9114 59.125 43.2596V54.1537C59.125 55.5209 58.6382 56.6912 57.6647 57.6647C56.6912 58.6382 55.5209 59.125 54.1537 59.125H52.3029C51.5985 59.125 51.0081 58.8867 50.5319 58.41C50.0557 57.9338 49.8176 57.3435 49.8176 56.639V48.7066C49.8176 48.0026 50.0557 47.4123 50.5319 46.9356C51.0081 46.4594 51.5985 46.2213 52.3029 46.2213H55.8463V43.2596C55.8463 39.8221 54.6432 36.9002 52.2369 34.4939C49.8307 32.0877 46.9088 30.8846 43.4713 30.8846C40.0338 30.8846 37.1119 32.0877 34.7057 34.4939C32.2994 36.9002 31.0963 39.8221 31.0963 43.2596V46.2213H34.639C35.3435 46.2213 35.9338 46.4594 36.41 46.9356C36.8867 47.4123 37.125 48.0026 37.125 48.7066V56.639C37.125 57.3435 36.8867 57.9338 36.41 58.41C35.9338 58.8867 35.3435 59.125 34.639 59.125Z" fill="#9887A7"/>
</g>
</svg>
