<svg width="28" height="28" viewBox="0 0 28 28" fill="none" xmlns="http://www.w3.org/2000/svg">
<mask id="mask0_1952_5452" style="mask-type:alpha" maskUnits="userSpaceOnUse" x="0" y="0" width="28" height="28">
<rect width="28" height="28" fill="#D9D9D9"/>
</mask>
<g mask="url(#mask0_1952_5452)">
<path d="M20.5512 10.8369V17.166C20.5512 17.4649 20.4502 17.715 20.2482 17.9162C20.0461 18.1173 19.7957 18.2178 19.4968 18.2178H17.3318C17.0839 18.2178 16.876 18.134 16.7082 17.9664C16.5406 17.7986 16.4568 17.5906 16.4568 17.3425C16.4568 17.0946 16.5406 16.8868 16.7082 16.7192C16.876 16.5518 17.0839 16.4681 17.3318 16.4681H18.8015V11.5319H12.6068C12.3589 11.5319 12.151 11.4481 11.9832 11.2805C11.8156 11.1127 11.7318 10.9047 11.7318 10.6566C11.7318 10.4087 11.8156 10.2009 11.9832 10.0333C12.151 9.86592 12.3589 9.78221 12.6068 9.78221H19.4968C19.7957 9.78221 20.0461 9.88322 20.2482 10.0853C20.4502 10.2875 20.5512 10.538 20.5512 10.8369ZM25.0834 7.35904V20.641C25.0834 21.221 24.8769 21.7175 24.4639 22.1305C24.0509 22.5435 23.5544 22.75 22.9744 22.75H18.0251C17.7772 22.75 17.5693 22.6661 17.4015 22.4983C17.2339 22.3305 17.1501 22.1226 17.1501 21.8747C17.1501 21.6266 17.2339 21.4188 17.4015 21.2514C17.5693 21.0838 17.7772 21 18.0251 21H22.9744C23.0792 21 23.1652 20.9664 23.2325 20.8991C23.2998 20.8318 23.3334 20.7458 23.3334 20.641V7.35904C23.3334 7.25424 23.2998 7.16819 23.2325 7.10092C23.1652 7.03364 23.0792 7 22.9744 7H5.02579C4.92098 7 4.83494 7.03364 4.76766 7.10092C4.70039 7.16819 4.66675 7.25424 4.66675 7.35904V7.72479C4.66675 7.97271 4.58285 8.18047 4.41504 8.34808C4.24723 8.51589 4.03937 8.59979 3.79146 8.59979C3.54335 8.59979 3.33558 8.51589 3.16816 8.34808C3.00055 8.18047 2.91675 7.97271 2.91675 7.72479V7.35904C2.91675 6.77901 3.12325 6.2825 3.53625 5.8695C3.94925 5.4565 4.44576 5.25 5.02579 5.25H22.9744C23.5544 5.25 24.0509 5.4565 24.4639 5.8695C24.8769 6.2825 25.0834 6.77901 25.0834 7.35904ZM9.21908 22.75C8.98419 22.75 8.78003 22.6763 8.60658 22.5289C8.43294 22.3815 8.32444 22.1897 8.28108 21.9535C8.11211 20.7584 7.59654 19.7424 6.73437 18.9055C5.87201 18.0687 4.83951 17.562 3.63687 17.3857C3.4119 17.3565 3.23564 17.2507 3.10808 17.0683C2.98053 16.8861 2.91675 16.6784 2.91675 16.445C2.91675 16.1971 3.00123 15.9894 3.17021 15.8217C3.33937 15.6543 3.53605 15.5863 3.76025 15.6176C5.41614 15.806 6.82703 16.4862 7.99291 17.6581C9.1588 18.83 9.83819 20.2439 10.0311 21.8998C10.0626 22.136 9.99754 22.3368 9.83596 22.5021C9.67437 22.6674 9.46875 22.75 9.21908 22.75ZM13.7533 22.75C13.4974 22.75 13.2876 22.6617 13.1239 22.4852C12.9602 22.3086 12.8626 22.0888 12.8311 21.8257C12.6038 19.4041 11.6346 17.3485 9.92346 15.659C8.21235 13.9697 6.14229 13.0248 3.71329 12.8243C3.47704 12.8004 3.28522 12.7009 3.13783 12.5259C2.99044 12.3507 2.91675 12.1465 2.91675 11.9131C2.91675 11.665 2.99832 11.4542 3.16146 11.2808C3.3244 11.1073 3.52176 11.0326 3.75354 11.0565C6.66729 11.257 9.14607 12.375 11.1899 14.4107C13.2339 16.4463 14.3681 18.9209 14.5925 21.8345C14.6164 22.0903 14.5444 22.3069 14.3766 22.484C14.209 22.6613 14.0012 22.75 13.7533 22.75ZM4.10529 22.75C3.77221 22.75 3.49085 22.635 3.26121 22.405C3.03157 22.1749 2.91675 21.8934 2.91675 21.5603C2.91675 21.2272 3.03176 20.9458 3.26179 20.7162C3.49182 20.4866 3.77337 20.3717 4.10646 20.3717C4.43954 20.3717 4.7209 20.4868 4.95054 20.7168C5.18018 20.9468 5.295 21.2284 5.295 21.5615C5.295 21.8945 5.17998 22.1759 4.94996 22.4055C4.71993 22.6352 4.43837 22.75 4.10529 22.75Z" fill="white"/>
</g>
</svg>
