<svg width="28" height="28" viewBox="0 0 28 28" fill="none" xmlns="http://www.w3.org/2000/svg">
<mask id="mask0_304_3104" style="mask-type:alpha" maskUnits="userSpaceOnUse" x="0" y="0" width="28" height="28">
<rect width="28" height="28" fill="#D9D9D9"/>
</mask>
<g mask="url(#mask0_304_3104)">
<path d="M21.9871 13.9689C21.9871 12.3625 21.5575 10.8971 20.6981 9.57259C19.8389 8.24813 18.686 7.25909 17.2397 6.60547C17.0153 6.49926 16.85 6.34071 16.7438 6.12982C16.6376 5.91892 16.6257 5.70504 16.7079 5.48818C16.8022 5.25185 16.9682 5.08807 17.206 4.99684C17.4438 4.9056 17.6846 4.91308 17.9284 5.01927C19.6874 5.81799 21.0952 7.0198 22.152 8.6247C23.2087 10.2296 23.737 12.011 23.737 13.9689C23.737 15.9268 23.2087 17.7082 22.152 19.3131C21.0952 20.918 19.6874 22.1198 17.9284 22.9186C17.6846 23.0247 17.4438 23.0322 17.206 22.941C16.9682 22.8498 16.8022 22.686 16.7079 22.4496C16.6257 22.2328 16.6376 22.0189 16.7438 21.808C16.85 21.5971 17.0153 21.4386 17.2397 21.3324C18.686 20.6787 19.8389 19.6897 20.6981 18.3652C21.5575 17.0408 21.9871 15.5753 21.9871 13.9689ZM8.5929 16.9147H5.31728C5.01665 16.9147 4.76575 16.8141 4.56458 16.6129C4.3634 16.4118 4.26282 16.1609 4.26282 15.8602V12.1359C4.26282 11.8353 4.3634 11.5844 4.56458 11.3832C4.76575 11.182 5.01665 11.0814 5.31728 11.0814H8.5929L12.0839 7.59045C12.3636 7.31076 12.6855 7.24682 13.0497 7.39862C13.414 7.55044 13.5961 7.82528 13.5961 8.22314V19.773C13.5961 20.1709 13.414 20.4457 13.0497 20.5975C12.6855 20.7493 12.3636 20.6854 12.0839 20.4057L8.5929 16.9147ZM18.8461 13.9981C18.8461 14.725 18.695 15.4138 18.3929 16.0644C18.0907 16.7151 17.6831 17.2625 17.1701 17.7067C17.0056 17.8159 16.8325 17.8264 16.6507 17.7381C16.469 17.6499 16.3782 17.504 16.3782 17.3006V10.6372C16.3782 10.4338 16.469 10.288 16.6507 10.1997C16.8325 10.1115 17.0056 10.1219 17.1701 10.2311C17.6831 10.6873 18.0907 11.2475 18.3929 11.9116C18.695 12.5757 18.8461 13.2712 18.8461 13.9981Z" fill="white"/>
</g>
</svg>
