<svg width="28" height="28" viewBox="0 0 28 28" fill="none" xmlns="http://www.w3.org/2000/svg">
<mask id="mask0_367_377" style="mask-type:alpha" maskUnits="userSpaceOnUse" x="0" y="0" width="29" height="28">
<rect x="0.00012207" width="28" height="28" fill="#D9D9D9"/>
</mask>
<g mask="url(#mask0_367_377)">
<path d="M19.2007 22.3102C19.0093 22.4313 18.8141 22.5465 18.6151 22.6557C18.4162 22.7649 18.2113 22.8643 18.0004 22.9541C17.7835 23.0528 17.5581 23.0528 17.324 22.9541C17.0899 22.8554 16.9295 22.6916 16.8427 22.4627C16.756 22.2459 16.7687 22.0301 16.8809 21.8155C16.9931 21.6009 17.1576 21.4442 17.3744 21.3455C17.533 21.2796 17.68 21.2071 17.8153 21.1278C17.9507 21.0485 18.0842 20.9588 18.2158 20.8586L13.7533 16.8627V19.7749C13.7533 20.1727 13.5712 20.4476 13.207 20.5994C12.8428 20.7512 12.5208 20.6873 12.2411 20.4076L8.75013 16.9166H5.47451C5.17388 16.9166 4.92298 16.816 4.7218 16.6148C4.52063 16.4136 4.42005 16.1627 4.42005 15.8621V12.1378C4.42005 11.8372 4.52063 11.5863 4.7218 11.3851C4.92298 11.1839 5.17388 11.0833 5.47451 11.0833H7.97386L2.94372 6.05317C2.78219 5.89165 2.69955 5.68861 2.6958 5.44405C2.69207 5.19952 2.77471 4.99274 2.94372 4.82371C3.11273 4.6547 3.31764 4.57019 3.55846 4.57019C3.79926 4.57019 4.00417 4.6547 4.17318 4.82371L23.3334 23.9839C23.4949 24.1455 23.5776 24.3485 23.5813 24.5931C23.585 24.8376 23.5024 25.0444 23.3334 25.2134C23.1644 25.3824 22.9595 25.4669 22.7187 25.4669C22.4779 25.4669 22.273 25.3824 22.1039 25.2134L19.2007 22.3102ZM22.1488 19.5214L20.8946 18.2673C21.3 17.6346 21.6096 16.9559 21.8235 16.2312C22.0374 15.5065 22.1443 14.7531 22.1443 13.9708C22.1443 12.3718 21.7147 10.9083 20.8554 9.58009C19.9961 8.25188 18.8433 7.26096 17.3969 6.60734C17.1725 6.50113 17.0073 6.34258 16.9011 6.13169C16.7949 5.92079 16.7829 5.70691 16.8652 5.49005C16.9594 5.25372 17.1254 5.08994 17.3632 4.99871C17.6011 4.90747 17.8419 4.91495 18.0856 5.02114C19.8446 5.81986 21.2525 7.01868 22.3092 8.61762C23.3659 10.2165 23.8943 12.0009 23.8943 13.9708C23.8943 14.9939 23.7421 15.9762 23.4377 16.9177C23.1333 17.8593 22.7037 18.7272 22.1488 19.5214ZM18.577 15.9497L16.5354 13.908V10.6503C16.5354 10.4469 16.6281 10.2992 16.8136 10.2072C16.999 10.1152 17.174 10.1238 17.3386 10.233C17.883 10.6488 18.2966 11.2127 18.5793 11.9247C18.8619 12.6366 19.0033 13.3284 19.0033 14C19.0033 14.344 18.9678 14.6794 18.8967 15.0062C18.8257 15.333 18.7191 15.6475 18.577 15.9497ZM13.7533 11.126L11.236 8.59744L12.2411 7.59232C12.5208 7.31264 12.8428 7.24869 13.207 7.40049C13.5712 7.55232 13.7533 7.82716 13.7533 8.22501V11.126Z" fill="white"/>
</g>
</svg>
