<svg width="25" height="25" viewBox="0 0 25 25" fill="none" xmlns="http://www.w3.org/2000/svg">
<mask id="mask0_1952_5922" style="mask-type:alpha" maskUnits="userSpaceOnUse" x="0" y="0" width="25" height="25">
<rect x="0.610352" y="0.153076" width="24" height="24" fill="#D9D9D9"/>
</mask>
<g mask="url(#mask0_1952_5922)">
<path d="M14.8334 11.526L12.7682 9.46075H13.7452V8.34925C13.7452 8.24542 13.7903 8.17425 13.8807 8.13575C13.971 8.09725 14.0547 8.1165 14.1317 8.1935L15.8277 9.8895C15.9213 9.98317 15.9682 10.0903 15.9682 10.2108C15.9682 10.3313 15.9213 10.4383 15.8277 10.5318L14.8334 11.526ZM21.0219 17.7145L19.6719 16.3645H20.3797C20.4502 16.3453 20.5062 16.3069 20.5479 16.2492C20.5896 16.1914 20.6104 16.1337 20.6104 16.076V5.6915C20.6104 5.60183 20.5816 5.52808 20.5239 5.47025C20.4662 5.41258 20.3925 5.38375 20.3027 5.38375H8.69116L7.19116 3.88375H20.3027C20.8078 3.88375 21.2354 4.05875 21.5854 4.40875C21.9354 4.75875 22.1104 5.18633 22.1104 5.6915V16.076C22.1104 16.4325 22.0152 16.7572 21.8249 17.05C21.6344 17.343 21.3667 17.5645 21.0219 17.7145ZM18.7334 20.3837H2.74516C2.53233 20.3837 2.35408 20.3119 2.21041 20.1682C2.06691 20.0247 1.99516 19.8466 1.99516 19.6337C1.99516 19.4209 2.06691 19.2427 2.21041 19.0992C2.35408 18.9556 2.53233 18.8837 2.74516 18.8837H17.2182L16.2182 17.8837H4.91816C4.41299 17.8837 3.98541 17.7087 3.63541 17.3587C3.28541 17.0087 3.11041 16.5812 3.11041 16.076V5.59925C3.11041 5.49025 3.13924 5.3925 3.19691 5.306C3.25474 5.21933 3.32849 5.15042 3.41816 5.09925L2.16816 3.83375C2.02966 3.68508 1.95883 3.51108 1.95566 3.31175C1.95249 3.11225 2.02841 2.935 2.18341 2.78C2.32841 2.635 2.50408 2.5625 2.71041 2.5625C2.91674 2.5625 3.09241 2.635 3.23741 2.78L21.9834 21.526C22.1219 21.6645 22.1927 21.8386 22.1959 22.0483C22.1992 22.2578 22.1284 22.435 21.9834 22.58C21.8386 22.7248 21.663 22.7973 21.4567 22.7973C21.2502 22.7973 21.0745 22.7248 20.9297 22.58L18.7334 20.3837ZM10.6489 12.3298C10.5976 12.3876 10.5591 12.4469 10.5334 12.5078C10.5077 12.5686 10.4949 12.6439 10.4949 12.7338V13.4607C10.4949 13.6736 10.4232 13.8517 10.2797 13.9952C10.136 14.1389 9.95783 14.2107 9.74516 14.2107C9.53233 14.2107 9.35408 14.1389 9.21041 13.9952C9.06691 13.8517 8.99516 13.6736 8.99516 13.4607V12.2107C8.99516 11.9632 9.02433 11.7369 9.08266 11.5317C9.141 11.3267 9.22458 11.1492 9.33341 10.9992L4.85091 6.5165C4.77391 6.5485 4.71458 6.58858 4.67291 6.63675C4.63124 6.68475 4.61041 6.744 4.61041 6.8145V16.076C4.61041 16.1658 4.63924 16.2396 4.69691 16.2973C4.75458 16.3549 4.82833 16.3837 4.91816 16.3837H14.7029L10.6489 12.3298Z" fill="white"/>
</g>
</svg>
