<svg width="28" height="28" viewBox="0 0 28 28" fill="none" xmlns="http://www.w3.org/2000/svg">
<mask id="mask0_367_540" style="mask-type:alpha" maskUnits="userSpaceOnUse" x="0" y="0" width="28" height="28">
<rect width="28" height="28" fill="#D9D9D9"/>
</mask>
<g mask="url(#mask0_367_540)">
<path d="M20.7308 12.6987L23.9346 9.49489C24.1066 9.32289 24.3 9.27989 24.5146 9.36589C24.7292 9.45189 24.8365 9.61604 24.8365 9.85834V18.1416C24.8365 18.3839 24.7292 18.548 24.5146 18.634C24.3 18.72 24.1066 18.677 23.9346 18.505L20.6052 15.1756V15.3775C20.4855 15.6946 20.2458 15.8991 19.8861 15.9911C19.5264 16.0831 19.2104 15.993 18.9382 15.7208L10.26 7.04262C10.088 6.87059 9.9893 6.68699 9.96386 6.49181C9.93845 6.29662 9.96687 6.10331 10.0491 5.91186C10.1314 5.72041 10.2525 5.56223 10.4126 5.43732C10.5726 5.31242 10.7738 5.24998 11.0161 5.24998H18.6218C19.2112 5.24998 19.71 5.45414 20.1183 5.86248C20.5267 6.27081 20.7308 6.76964 20.7308 7.35896V12.6987ZM22.6872 25.2358L2.40526 4.95379C2.24372 4.79227 2.16108 4.58923 2.15735 4.34467C2.15361 4.10014 2.23625 3.89337 2.40526 3.72436C2.57428 3.55533 2.77918 3.47081 3.01998 3.47081C3.26078 3.47081 3.46569 3.55533 3.6347 3.72436L23.9167 24.0063C24.0782 24.1678 24.1608 24.3709 24.1646 24.6154C24.1683 24.86 24.0857 25.0668 23.9167 25.2358C23.7477 25.4048 23.5427 25.4893 23.3019 25.4893C23.0611 25.4893 22.8562 25.4048 22.6872 25.2358ZM5.18281 5.27241L20.7084 20.798C20.671 21.3424 20.4537 21.8038 20.0566 22.1822C19.6595 22.5607 19.1812 22.7499 18.6218 22.7499H5.33987C4.75055 22.7499 4.25172 22.5457 3.84339 22.1374C3.43505 21.7291 3.23089 21.2302 3.23089 20.6409V7.35893C3.23089 6.79953 3.4201 6.32128 3.79853 5.92417C4.17694 5.52705 4.63836 5.3098 5.18281 5.27241Z" fill="white"/>
</g>
</svg>
