<svg width="28" height="28" viewBox="0 0 28 28" fill="none" xmlns="http://www.w3.org/2000/svg">
<mask id="mask0_304_3087" style="mask-type:alpha" maskUnits="userSpaceOnUse" x="0" y="0" width="28" height="28">
<rect width="28" height="28" fill="#D9D9D9"/>
</mask>
<g mask="url(#mask0_304_3087)">
<path d="M5.30619 22.7499C4.71687 22.7499 4.21804 22.5458 3.80971 22.1374C3.40139 21.7291 3.19724 21.2303 3.19724 20.641V7.35898C3.19724 6.76966 3.40139 6.27083 3.80971 5.8625C4.21804 5.45417 4.71687 5.25 5.30619 5.25H18.5882C19.1775 5.25 19.6763 5.45417 20.0847 5.8625C20.493 6.27083 20.6971 6.76966 20.6971 7.35898V12.6987L23.901 9.49492C24.073 9.32291 24.2663 9.27991 24.4809 9.36591C24.6955 9.45192 24.8029 9.61607 24.8029 9.85836V18.1416C24.8029 18.3839 24.6955 18.548 24.4809 18.634C24.2663 18.72 24.073 18.677 23.901 18.505L20.6971 15.3012V20.641C20.6971 21.2303 20.493 21.7291 20.0847 22.1374C19.6763 22.5458 19.1775 22.7499 18.5882 22.7499H5.30619Z" fill="white"/>
</g>
</svg>
